<svg width="1152" height="700" viewBox="0 0 1152 700" fill="none" xmlns="http://www.w3.org/2000/svg">
<rect width="1152" height="700" fill="white"/>
<rect width="192" height="181" transform="translate(298 240)" fill="white"/>
<path d="M314 262.625H362C370.487 262.625 378.626 265.803 384.627 271.461C390.629 277.118 394 284.791 394 292.792V398.375C394 392.374 391.471 386.62 386.971 382.377C382.47 378.134 376.365 375.75 370 375.75H314V262.625Z" stroke="black" stroke-width="2" stroke-linecap="round" stroke-linejoin="round"/>
<path d="M440.188 264.969C441.592 263.711 443.259 262.713 445.093 262.032C446.928 261.351 448.894 261 450.88 261C452.865 261 454.831 261.351 456.666 262.032C458.5 262.713 460.167 263.711 461.571 264.969C462.975 266.227 464.089 267.721 464.849 269.365C465.609 271.01 466 272.772 466 274.551C466 276.331 465.609 278.093 464.849 279.737C464.089 281.381 462.975 282.875 461.571 284.133L389.402 348.813L360 356L368.019 329.649L440.188 264.969Z" stroke="black" stroke-width="2" stroke-linecap="round" stroke-linejoin="round"/>
<path d="M386.889 315.98C386.889 315.457 387.093 314.955 387.459 314.581L397.681 304.125C398.934 302.843 401.111 303.73 401.111 305.523V335.313C401.111 335.838 400.905 336.341 400.537 336.715L390.315 347.105C389.059 348.38 386.889 347.492 386.889 345.702L386.889 315.98Z" fill="white"/>
<path d="M516.86 370.64H480.18L474.3 388H449.24L484.8 289.72H512.52L548.08 388H522.74L516.86 370.64ZM510.7 352.16L498.52 316.18L486.48 352.16H510.7ZM561.843 338.72C561.843 329.013 563.943 320.38 568.143 312.82C572.343 305.167 578.176 299.24 585.643 295.04C593.203 290.747 601.743 288.6 611.263 288.6C622.929 288.6 632.916 291.68 641.223 297.84C649.529 304 655.083 312.4 657.883 323.04H631.563C629.603 318.933 626.803 315.807 623.163 313.66C619.616 311.513 615.556 310.44 610.983 310.44C603.609 310.44 597.636 313.007 593.063 318.14C588.489 323.273 586.203 330.133 586.203 338.72C586.203 347.307 588.489 354.167 593.063 359.3C597.636 364.433 603.609 367 610.983 367C615.556 367 619.616 365.927 623.163 363.78C626.803 361.633 629.603 358.507 631.563 354.4H657.883C655.083 365.04 649.529 373.44 641.223 379.6C632.916 385.667 622.929 388.7 611.263 388.7C601.743 388.7 593.203 386.6 585.643 382.4C578.176 378.107 572.343 372.18 568.143 364.62C563.943 357.06 561.843 348.427 561.843 338.72ZM750.243 289.72V308.9H724.203V388H700.263V308.9H674.223V289.72H750.243ZM830.438 370.64H793.758L787.878 388H762.818L798.378 289.72H826.098L861.658 388H836.318L830.438 370.64ZM824.278 352.16L812.098 316.18L800.058 352.16H824.278Z" fill="#5CB2D7"/>
</svg>
