<svg width="183" height="54" viewBox="0 0 183 54" fill="none" xmlns="http://www.w3.org/2000/svg">
<rect width="54" height="54" fill="white"/>
<path d="M4.5 6.75H18C20.3869 6.75 22.6761 7.69821 24.364 9.38604C26.0518 11.0739 27 13.3631 27 15.75V47.25C27 45.4598 26.2888 43.7429 25.023 42.477C23.7571 41.2112 22.0402 40.5 20.25 40.5H4.5V6.75Z" stroke="black" stroke-width="2" stroke-linecap="round" stroke-linejoin="round"/>
<path d="M39.6769 7.37385C40.0949 6.98469 40.5911 6.67599 41.1372 6.46538C41.6834 6.25476 42.2687 6.14636 42.8598 6.14636C43.4509 6.14636 44.0363 6.25476 44.5824 6.46538C45.1285 6.67599 45.6248 6.98469 46.0427 7.37385C46.4607 7.76301 46.7923 8.22501 47.0185 8.73347C47.2447 9.24194 47.3611 9.78691 47.3611 10.3373C47.3611 10.8876 47.2447 11.4326 47.0185 11.9411C46.7923 12.4495 46.4607 12.9115 46.0427 13.3007L24.558 33.3037L15.8049 35.5263L18.1921 27.3769L39.6769 7.37385Z" stroke="black" stroke-width="2" stroke-linecap="round" stroke-linejoin="round"/>
<path d="M25 22.4122L29 18.6797V27.7915L25 31.5L25 22.4122Z" fill="white"/>
<path d="M60.96 37.04H50.48L48.8 42H41.64L51.8 13.92H59.72L69.88 42H62.64L60.96 37.04ZM59.2 31.76L55.72 21.48L52.28 31.76H59.2ZM73.8122 27.92C73.8122 25.1467 74.4122 22.68 75.6122 20.52C76.8122 18.3333 78.4789 16.64 80.6122 15.44C82.7722 14.2133 85.2122 13.6 87.9322 13.6C91.2655 13.6 94.1189 14.48 96.4922 16.24C98.8655 18 100.452 20.4 101.252 23.44H93.7322C93.1722 22.2667 92.3722 21.3733 91.3322 20.76C90.3189 20.1467 89.1589 19.84 87.8522 19.84C85.7455 19.84 84.0389 20.5733 82.7322 22.04C81.4255 23.5067 80.7722 25.4667 80.7722 27.92C80.7722 30.3733 81.4255 32.3333 82.7322 33.8C84.0389 35.2667 85.7455 36 87.8522 36C89.1589 36 90.3189 35.6933 91.3322 35.08C92.3722 34.4667 93.1722 33.5733 93.7322 32.4H101.252C100.452 35.44 98.8655 37.84 96.4922 39.6C94.1189 41.3333 91.2655 42.2 87.9322 42.2C85.2122 42.2 82.7722 41.6 80.6122 40.4C78.4789 39.1733 76.8122 37.48 75.6122 35.32C74.4122 33.16 73.8122 30.6933 73.8122 27.92ZM127.641 13.92V19.4H120.201V42H113.361V19.4H105.921V13.92H127.641ZM150.554 37.04H140.074L138.394 42H131.234L141.394 13.92H149.314L159.474 42H152.234L150.554 37.04ZM148.794 31.76L145.314 21.48L141.874 31.76H148.794Z" fill="#5CB2D7"/>
</svg>
