<svg width="41" height="36" viewBox="0 0 41 36" fill="none" xmlns="http://www.w3.org/2000/svg">
<path d="M28.6573 5.84931L35.0778 12.1915C35.3483 12.4587 35.3483 12.8946 35.0778 13.1618L19.5319 28.5181L12.9264 29.2423C12.0437 29.3407 11.2964 28.6024 11.396 27.7306L12.1292 21.2056L27.675 5.84931C27.9455 5.58213 28.3868 5.58213 28.6573 5.84931ZM40.1885 4.23916L36.7149 0.80791C35.633 -0.26084 33.8748 -0.26084 32.7858 0.80791L30.266 3.29697C29.9955 3.56416 29.9955 4.0001 30.266 4.26728L36.6865 10.6095C36.9569 10.8767 37.3983 10.8767 37.6688 10.6095L40.1885 8.12041C41.2705 7.04463 41.2705 5.30791 40.1885 4.23916ZM27.3333 24.3415V31.4993H4.55556V8.99931H20.9128C21.1406 8.99931 21.3542 8.90791 21.5179 8.75322L24.3651 5.94072C24.9061 5.40635 24.5217 4.49932 23.7601 4.49932H3.41667C1.53038 4.49932 0 6.01103 0 7.87431V32.6243C0 34.4876 1.53038 35.9993 3.41667 35.9993H28.4722C30.3585 35.9993 31.8889 34.4876 31.8889 32.6243V21.529C31.8889 20.7767 30.9707 20.404 30.4297 20.9313L27.5825 23.7438C27.4259 23.9056 27.3333 24.1165 27.3333 24.3415Z" fill="#22D1EE"/>
</svg>
