<svg width="34" height="35" viewBox="0 0 34 35" fill="none" xmlns="http://www.w3.org/2000/svg">
<path d="M33.6879 14.3147H17.346V21.0866H26.6817C26.2791 23.2756 25.0579 25.127 23.217 26.3674C21.661 27.4163 19.6754 28.0365 17.3415 28.0365C12.8229 28.0365 9.00093 24.9583 7.63496 20.8221C7.29121 19.7733 7.09219 18.6515 7.09219 17.4977C7.09219 16.344 7.29121 15.2221 7.63496 14.1733C9.00545 10.0417 12.8275 6.96352 17.346 6.96352C19.8925 6.96352 22.1767 7.84821 23.9769 9.58111L28.9522 4.56026C25.9444 1.7329 22.0229 0 17.346 0C10.5659 0 4.69948 3.92182 1.84542 9.64039C0.669416 12.0026 0 14.6749 0 17.5023C0 20.3296 0.669416 22.9974 1.84542 25.3596C4.69948 31.0782 10.5659 35 17.346 35C22.0319 35 25.958 33.4313 28.8256 30.759C32.1048 27.7127 34 23.2254 34 17.8945C34 16.6541 33.8914 15.4638 33.6879 14.3147Z" fill="black"/>
</svg>
