<svg width="211" height="201" viewBox="0 0 211 201" fill="none" xmlns="http://www.w3.org/2000/svg">
<path fill-rule="evenodd" clip-rule="evenodd" d="M27.394 59.3683C29.0545 59.1655 30.8268 59.2371 32.371 59.8925C35.6547 61.2864 36.5881 65.1657 36.543 68.3187C36.4945 71.7124 35.7738 75.4192 38.354 78.1535C39.54 79.4107 41.0153 80.3727 42.18 81.6529C43.4244 83.021 44.4008 84.5863 45.1238 86.2672C46.4512 89.3547 47.1027 92.9856 45.8889 96.2245C44.8201 99.0761 42.1311 101.65 42.7121 104.892C43.3182 108.275 46.7285 110.861 48.8607 113.381C51.2737 116.232 53.4954 119.876 53.8604 123.615C54.2104 127.199 52.6505 130.823 50.2567 133.532C45.4738 138.944 38.2844 141.598 31.0353 141.581C27.9575 141.574 24.4728 141.435 21.8168 139.781C20.9959 139.27 20.5628 138.696 20.0748 137.899C19.6373 137.184 19.0593 136.719 18.3903 136.213C16.9205 135.102 15.859 133.604 15.1816 131.928C12.5511 125.417 14.6536 117.361 18.3357 111.579C19.2082 110.209 19.9225 108.891 19.4986 107.258C19.0563 105.554 17.9692 104.016 17.0077 102.551C16.0575 101.103 14.9728 99.7217 14.2302 98.1561C13.4524 96.5159 13.2334 94.7985 13.3708 93.0035C13.6291 89.6318 15.0846 86.5203 17.1453 83.8087C19.1301 81.1968 21.4606 78.6977 21.4658 75.2753C21.4716 71.6481 19.0467 68.4215 20.0797 64.7337C20.5075 63.2067 21.3666 61.6399 22.7512 60.7244C24.0791 59.8464 25.8323 59.5591 27.394 59.3683Z" fill="#DDE3E9"/>
<path fill-rule="evenodd" clip-rule="evenodd" d="M26.309 65.167C26.3401 64.6798 26.918 64.3877 27.3729 64.5148C27.9717 64.6822 27.9602 65.2417 27.9444 65.7401C27.8959 67.2723 28.1177 68.7612 28.486 70.2478C29.2514 73.3387 30.6661 76.1863 31.7869 79.1553C32.9067 82.1218 33.4324 85.1846 32.7755 88.3236C32.1562 91.2832 31.1832 94.1661 30.5495 97.1294C29.9908 99.7412 29.3964 102.496 30.2472 105.101C31.0658 107.608 32.8756 109.651 34.1788 111.917C36.8766 116.608 38.0735 121.812 38.2336 127.168C38.3078 129.655 38.2409 132.165 37.664 134.604C37.3319 136.008 36.8857 137.906 35.6821 138.876C35.1272 139.323 34.178 139.478 33.7109 138.816C33.2723 138.194 33.657 137.233 33.7963 136.571C34.3992 133.705 34.5205 130.777 34.3761 127.867C34.2364 125.049 33.9034 122.235 33.0164 119.543C32.1931 117.045 30.9424 114.802 29.4703 112.617C27.9703 110.39 26.411 108.158 25.7912 105.519C25.1614 102.84 25.673 100.113 26.3571 97.484C27.0805 94.7036 28.0281 92.003 29.0077 89.2979C29.9624 86.662 30.3007 84.168 29.7737 81.4092C28.7326 75.9588 25.9459 70.8429 26.309 65.167Z" fill="#C5CFD6"/>
<path fill-rule="evenodd" clip-rule="evenodd" d="M71.237 65.9819C73.2919 66.6058 75.3327 67.6125 76.7975 69.191C79.9121 72.5476 78.9565 77.6209 77.2371 81.3263C75.3864 85.3146 72.5818 89.3234 74.1628 93.8994C74.8895 96.0031 76.1114 97.9083 76.8007 100.028C77.5372 102.293 77.855 104.653 77.8146 107.017C77.7396 111.359 76.5846 115.992 73.4489 119.19C70.6881 122.007 66.1737 123.652 65.1413 127.789C64.0643 132.104 66.6974 136.937 67.8665 141.026C69.1897 145.653 69.8693 151.118 68.321 155.73C66.8375 160.15 63.0924 163.625 58.8529 165.583C50.3821 169.496 40.5472 168.894 32.0533 165.103C28.4472 163.494 24.4335 161.516 22.1924 158.179C21.4998 157.147 21.295 156.243 21.1441 155.047C21.0088 153.974 20.5766 153.123 20.0594 152.177C18.9228 150.098 18.4693 147.774 18.5609 145.44C18.9172 136.371 25.6409 127.938 33.0158 123.015C34.7633 121.849 36.2979 120.662 36.6638 118.51C37.0459 116.264 36.5834 113.881 36.2301 111.648C35.881 109.441 35.3389 107.243 35.2954 105.005C35.2501 102.661 35.901 100.516 37.0109 98.4645C39.096 94.6114 42.4478 91.6889 46.298 89.5541C50.0066 87.4978 54.061 85.7546 55.876 81.7099C57.8 77.4233 56.6612 72.3459 59.8221 68.522C61.131 66.9387 62.9668 65.5327 65.0747 65.1704C67.0962 64.8228 69.3045 65.3951 71.237 65.9819Z" fill="#DDE3E9"/>
<path fill-rule="evenodd" clip-rule="evenodd" d="M67.0396 73.0705C67.3311 72.5099 68.1599 72.4668 68.6252 72.8557C69.2377 73.3678 68.9312 74.0243 68.6517 74.6063C67.7926 76.3953 67.2721 78.2749 66.9241 80.2284C66.2005 84.2899 66.3633 88.4037 66.1189 92.5071C65.8747 96.607 64.8853 100.51 62.4732 103.883C60.199 107.063 57.5515 109.967 55.2584 113.144C53.2374 115.944 51.0998 118.894 50.7302 122.425C50.3741 125.824 51.4207 129.191 51.7577 132.558C52.4555 139.527 51.1294 146.318 48.5117 152.744C47.2959 155.728 45.9033 158.665 43.9513 161.251C42.8274 162.741 41.3115 164.754 39.3964 165.272C38.5132 165.511 37.3224 165.196 37.123 164.167C36.9355 163.202 37.8889 162.265 38.3984 161.554C40.6042 158.476 42.2797 155.072 43.6348 151.55C44.9476 148.14 46.0318 144.633 46.4043 140.98C46.7499 137.591 46.4624 134.278 45.8856 130.919C45.2979 127.495 44.6433 124.035 45.3005 120.586C45.9676 117.082 47.994 114.121 50.1706 111.367C52.4726 108.453 54.995 105.752 57.5572 103.062C60.054 100.44 61.7559 97.6643 62.5845 94.121C64.2216 87.1208 63.6424 79.6018 67.0396 73.0705Z" fill="#C5CFD6"/>
<path fill-rule="evenodd" clip-rule="evenodd" d="M7.71308 91.7295C11.1298 91.7295 14.1337 93.5406 16.2036 96.1107C18.6265 99.1192 19.1159 102.793 20.0998 106.379C20.5894 108.163 21.4314 109.935 22.907 111.147C24.2492 112.25 25.9531 112.47 27.5596 113.009C30.7702 114.086 33.3627 116.679 34.3866 119.843C35.6357 123.703 34.3127 127.596 34.5405 131.507C34.7496 135.1 38.2916 137.341 41.1414 139.063C43.9515 140.761 46.483 142.351 47.3293 145.659C48.2268 149.168 48.5279 153.084 47.2848 156.55C45.2152 162.321 39.1582 164.862 33.3056 165.256C27.9941 165.614 21.3156 165.053 17.3267 161.197C14.9399 158.89 14.0755 155.663 14.1827 152.453C14.2493 150.457 14.6448 148.479 15.1561 146.55C15.5184 145.182 16.008 143.821 16.1475 142.408C16.5182 138.649 13.0441 137.927 10.0868 136.895C6.32902 135.584 3.69822 133.106 1.86885 129.655C0.165207 126.441 -0.549605 122.834 0.471679 119.295C0.993281 117.489 1.93934 115.849 3.2224 114.455C3.7872 113.842 4.58325 113.33 5.09303 112.685C5.56886 112.083 5.46527 111.303 5.30128 110.598C4.54306 107.34 2.1807 104.643 1.33586 101.392C0.573119 98.4569 1.02401 94.8042 3.70725 92.9108C4.86651 92.0927 6.29613 91.7386 7.71308 91.7295Z" fill="#C5CFD6"/>
<path fill-rule="evenodd" clip-rule="evenodd" d="M12.3688 100.217C15.9902 104.074 16.9745 109.308 17.2634 114.381C17.4252 117.225 17.2568 120.226 18.0926 122.985C18.8076 125.346 20.484 127.152 22.212 128.858C25.6903 132.292 29.5694 135.784 30.5868 140.754C31.1838 143.671 30.7808 146.684 31.6057 149.569C32.3557 152.191 33.6763 154.768 35.2825 156.982C36.5758 158.765 38.2607 160.13 39.6744 161.793C40.1057 162.3 40.7235 163.047 40.5455 163.763C40.3372 164.602 39.2687 164.868 38.5105 164.736C36.7429 164.429 35.255 162.741 34.0993 161.514C32.4092 159.72 30.9731 157.79 29.8059 155.625C28.5101 153.221 27.4667 150.67 27.0209 147.972C26.5582 145.174 26.7885 142.258 25.7321 139.573C23.9544 135.054 19.6427 132.388 16.5253 128.866C12.6413 124.477 13.2206 119.015 13.6184 113.617C13.8369 110.651 14.0542 107.301 12.5552 104.592C11.9829 103.558 10.7072 102.594 10.4611 101.419C10.2358 100.342 11.4657 99.2542 12.3688 100.217Z" fill="#AFB9C5"/>
<path fill-rule="evenodd" clip-rule="evenodd" d="M16.2308 163.609C16.231 185.67 19.8312 197.23 38.838 197.23C57.8447 197.23 61.4449 185.67 61.4451 163.609H16.2308Z" fill="#22D1EE"/>
<path fill-rule="evenodd" clip-rule="evenodd" d="M107.971 30.5688C105.3 27.4335 103.492 23.5912 103.794 19.2857C104.664 6.88049 121.933 9.60948 125.292 15.8706C128.651 22.1317 128.252 38.0134 123.911 39.1325C122.179 39.5787 118.491 38.4855 114.737 36.223L117.093 52.8918H103.181L107.971 30.5688Z" fill="#B28B67"/>
<path fill-rule="evenodd" clip-rule="evenodd" d="M131.455 7.19088C131.167 6.17823 130.392 5.31119 129.348 5.05396C129.095 4.99157 128.833 4.96637 128.573 4.97687C128.479 4.9806 128.453 5.00756 128.409 4.94219C128.377 4.89373 128.376 4.77534 128.363 4.71839C128.321 4.5413 128.269 4.36641 128.205 4.19606C127.987 3.61503 127.62 3.1008 127.177 2.66763C126.349 1.85723 125.23 1.29794 124.068 1.19675C123.432 1.1414 122.8 1.24476 122.199 1.45169C121.887 1.55882 121.586 1.69221 121.292 1.83968C121.203 1.88407 120.916 2.10148 120.827 2.08739C120.729 2.07186 120.532 1.828 120.452 1.76678C119.465 1.0101 118.248 0.712603 117.019 0.721499C115.633 0.731941 114.297 0.801225 113.141 1.64649C112.896 1.82545 112.663 2.02138 112.441 2.22767C112.324 2.33628 112.211 2.44896 112.103 2.56633C112.038 2.63713 111.974 2.70954 111.913 2.78389C111.81 2.91008 111.826 2.95154 111.681 2.86349C111.125 2.52537 110.48 2.36723 109.83 2.44706C109.444 2.49449 109.069 2.6103 108.713 2.76272C108.591 2.81461 108.311 3.02158 108.181 3.0236C108.053 3.02558 107.776 2.83372 107.644 2.78495C106.93 2.52148 106.161 2.45654 105.411 2.57828C104.637 2.70391 103.877 3.01264 103.221 3.43927C102.906 3.64449 102.631 3.87187 102.41 4.17702C102.314 4.30878 102.228 4.44815 102.12 4.57031C102.057 4.64184 101.931 4.71523 101.897 4.80576C101.918 4.75155 101.051 4.41746 100.969 4.39611C100.534 4.28232 100.09 4.30539 99.6634 4.44579C98.8612 4.70979 98.1713 5.30182 97.6043 5.90882C97.313 6.2206 97.0582 6.56523 96.8419 6.93239C96.7382 7.10827 96.6434 7.28917 96.5566 7.47391C96.5146 7.56341 96.4868 7.67537 96.4314 7.756C96.36 7.85988 96.312 7.86186 96.1828 7.90716C95.5262 8.13717 94.9277 8.52649 94.472 9.05256C94.0109 9.58478 93.7118 10.2402 93.5864 10.9304C93.579 10.9711 93.5746 11.1396 93.5508 11.1616C93.5182 11.1919 93.3862 11.1785 93.3362 11.1843C93.1633 11.2046 92.9915 11.2348 92.8221 11.2749C92.5097 11.3489 92.2057 11.4577 91.9181 11.6C90.797 12.1546 89.9953 13.1946 89.6029 14.3647C89.1912 15.5927 89.1985 16.9996 89.6906 18.2047C89.7701 18.3993 89.8646 18.5882 89.9757 18.767C90.0439 18.8767 90.066 18.8769 90.0217 18.9921C89.9723 19.1201 89.8821 19.2446 89.8235 19.3697C89.6322 19.778 89.4985 20.2111 89.4141 20.6535C89.2755 21.3791 89.2068 22.1417 89.3435 22.8728C89.407 23.2123 89.5176 23.5442 89.6863 23.8465C89.7723 24.0007 89.873 24.1469 89.9866 24.2822C90.0456 24.3524 90.1083 24.4195 90.1738 24.4837C90.2113 24.5204 90.2605 24.5526 90.2923 24.5936C90.3701 24.6935 90.3865 24.6114 90.3464 24.7581C90.2903 24.9634 90.1631 25.1659 90.0852 25.3656C90.005 25.5714 89.9324 25.78 89.8661 25.9906C89.7317 26.4172 89.6181 26.8515 89.5471 27.2933C89.4107 28.1415 89.4346 29.0453 89.8358 29.8237C90.0074 30.1567 90.2535 30.4488 90.5519 30.6761C90.698 30.7872 90.8563 30.883 91.0223 30.9617C91.1076 31.0022 91.2165 31.0196 91.2554 31.1021C91.2973 31.1908 91.2351 31.3669 91.2209 31.4661C91.0976 32.3288 91.0357 33.2346 91.2921 34.08C91.5283 34.8587 92.0484 35.5462 92.7236 36.0014C94.0334 36.8843 95.799 36.8346 97.1753 36.1277C97.5341 35.9434 97.8697 35.7146 98.1691 35.4447C98.9315 36.471 100.5 36.4386 101.615 36.1461C103.003 35.7818 104.117 34.8165 104.759 33.5483C105.636 34.6166 107.478 34.2699 108.086 33.111C108.235 32.8274 108.324 32.5147 108.367 32.1984C108.39 32.032 108.375 31.8642 108.393 31.6992C108.415 31.4889 108.555 31.2846 108.636 31.0811C108.793 30.6852 108.891 30.2763 108.895 29.8492C108.897 29.6262 108.869 29.409 108.848 29.1878C108.829 28.9887 108.884 28.8032 108.915 28.6067C108.559 28.6653 108.125 28.5693 107.79 28.4661C107.461 28.3648 107.152 28.0979 106.92 27.8543C106.381 27.2884 106.051 26.5467 105.826 25.8084C105.331 24.1881 105.534 22.2441 107.164 21.3548C107.923 20.9405 110.197 20.9419 111.102 21.1466C112.052 21.3619 113.13 23.4599 113.183 23.6571C113.216 23.7791 113.2 23.9302 113.312 24.0115C113.558 24.1903 113.964 23.88 114.146 23.7268C114.46 23.4625 114.684 23.1109 114.877 22.7544C115.299 21.9778 115.64 21.145 115.88 20.2948C116.065 19.6394 116.184 18.9635 116.426 18.3247C116.667 17.6891 117.047 17.121 117.638 16.761C118.281 16.3693 119.017 16.163 119.723 15.9169C120.422 15.6729 121.11 15.3748 121.652 14.8572C121.771 14.7434 121.887 14.6224 121.983 14.4884C122.059 14.3826 122.133 14.1801 122.249 14.113C122.428 14.0087 122.69 14.28 122.845 14.3785C123.611 14.8647 124.249 15.5427 124.764 16.2833C125.276 17.0199 125.697 17.7287 126.038 18.5513C126.292 19.1613 126.45 19.9426 126.895 20.4425C127.094 20.6658 128.573 20.8008 129.051 20.6059C129.53 20.411 130.067 19.905 130.228 19.5878C130.392 19.2632 130.432 18.9066 130.361 18.5513C130.32 18.3422 130.235 18.1469 130.189 17.9416C130.15 17.7691 130.115 17.606 130.031 17.448C129.872 17.1486 129.6 16.9333 129.272 16.8433C129.613 16.5288 129.896 16.1525 130.092 15.7318C130.295 15.2948 130.467 14.7633 130.516 14.2837C130.556 13.8941 130.495 13.4905 130.281 13.1556C130.058 12.8044 129.661 12.5753 129.318 12.3562C129.842 11.9464 130.29 11.448 130.659 10.8961C131.376 9.82298 131.819 8.47027 131.455 7.19088Z" fill="#191847"/>
<path fill-rule="evenodd" clip-rule="evenodd" d="M64.3434 125.351H131.006C136.128 125.351 140.28 129.503 140.28 134.625V187.955C140.28 193.077 136.128 197.23 131.006 197.23H64.3434C59.2211 197.23 55.0687 193.077 55.0687 187.955V134.625C55.0687 129.503 59.2211 125.351 64.3434 125.351ZM73.6181 141.581C72.3376 141.581 71.2995 142.619 71.2995 143.9V178.68C71.2995 179.961 72.3376 180.999 73.6181 180.999H121.731C123.011 180.999 124.049 179.961 124.049 178.68V143.9C124.049 142.619 123.011 141.581 121.731 141.581H73.6181Z" fill="black"/>
<path fill-rule="evenodd" clip-rule="evenodd" d="M181.732 195.294C174.305 178.855 168.934 164.541 166.778 156.989C163.086 144.058 160.278 132.68 159.568 128.43C157.875 118.297 172.588 117.707 174.533 122.743C177.477 130.365 182.615 155.408 188.79 193.234L181.732 195.294ZM95.5809 143.705C102.395 141.011 126.259 132.582 137.769 130.197C141.076 129.512 144.282 128.875 147.295 128.3C156.254 126.59 160.895 142.751 152.267 143.993C130.78 147.085 100.319 150.278 97.7126 150.637C94.0591 151.139 91.2982 145.398 95.5809 143.705Z" fill="#B28B67"/>
<path fill-rule="evenodd" clip-rule="evenodd" d="M152.794 123.853L115.934 105.089V101.004H120.318C155.978 110.091 174.2 115.915 174.984 118.474C174.993 118.502 175 118.53 175.008 118.557C175.025 118.581 175.043 118.604 175.06 118.628C182.127 128.348 186.36 175.798 187.749 179.35L174.207 181.371C169.027 162.162 152.453 148.78 152.894 125.773C152.775 125.098 152.745 124.458 152.794 123.853Z" fill="#2FC5DE"/>
<path fill-rule="evenodd" clip-rule="evenodd" d="M118.997 134.997C115.624 134.321 112.518 133.719 109.861 133.253C92.6947 130.242 87.6889 121.053 90.6486 101.004H122.277C127.443 102.489 154.293 113.748 168.224 119.737C177.444 123.701 174.538 137.99 169.316 141.709C169.288 141.937 169.194 142.092 169.027 142.161C140.939 153.802 118.719 147.694 111.297 149.646L107.863 138.815L118.997 134.997Z" fill="#22D1EE"/>
<path fill-rule="evenodd" clip-rule="evenodd" d="M97.9108 141.984C96.0706 142.16 94.7642 142.436 93.9917 142.813C93.0522 143.271 91.7575 144.096 90.1077 145.288C90.6393 146.378 95.4168 156.173 104.44 174.674C107.337 174.206 108.485 173.101 107.884 171.357C107.283 169.614 106.798 168.158 106.429 166.991L105.857 150.363C105.846 150.043 105.577 149.793 105.257 149.804C105.252 149.804 105.246 149.804 105.241 149.805L102.683 149.965C101.23 148.789 100.271 147.725 99.8062 146.772C99.4288 145.999 99.2202 144.778 99.1802 143.11L99.1802 143.11C99.1649 142.47 98.6335 141.963 97.9934 141.979C97.9658 141.979 97.9383 141.981 97.9108 141.984Z" fill="#E4E4E4"/>
<path fill-rule="evenodd" clip-rule="evenodd" d="M178.352 192.246C177.703 193.977 177.379 195.272 177.379 196.132C177.379 197.177 177.553 198.702 177.902 200.708C179.114 200.708 190.012 200.708 210.596 200.708C211.446 197.899 210.955 196.383 209.125 196.159C207.294 195.935 205.774 195.732 204.563 195.552L189.367 188.778C189.074 188.647 188.732 188.779 188.601 189.071C188.599 189.076 188.597 189.081 188.595 189.086L187.618 191.455C185.923 192.246 184.546 192.641 183.487 192.641C182.626 192.641 181.437 192.294 179.921 191.599L179.921 191.598C179.339 191.332 178.65 191.587 178.384 192.169C178.372 192.194 178.362 192.22 178.352 192.246Z" fill="#E4E4E4"/>
<path fill-rule="evenodd" clip-rule="evenodd" d="M149.581 91.8008L166.002 107.82C170.779 109.858 174.694 112.108 177.746 114.571C178.432 115.399 179.179 116.985 175.95 116.275C172.721 115.565 169.293 114.964 168.686 116.014C168.079 117.064 169.868 118.673 168.746 120.048C167.998 120.964 165.484 118.05 161.202 111.305L144.127 101.238L149.581 91.8008ZM76.695 94.06L88.8086 94.1076C81.329 118.253 77.2911 131.064 76.695 132.542C75.3537 135.866 78.1921 140.929 79.4059 143.649C75.4525 145.418 75.8738 138.867 70.8867 141.187C66.3347 143.305 62.872 147.142 57.6129 143.897C56.9663 143.498 56.2577 141.996 57.9697 140.822C62.2348 137.897 68.381 132.779 69.2114 131.094C70.3439 128.797 72.8384 116.452 76.695 94.06Z" fill="#B28B67"/>
<path fill-rule="evenodd" clip-rule="evenodd" d="M111.12 43.2299L116.132 42.3702C124.762 63.9282 139.829 83.5165 161.333 101.135L145.084 120.876C123.582 95.7901 110.329 69.9079 111.12 43.2299Z" fill="#5CB2D7"/>
<path fill-rule="evenodd" clip-rule="evenodd" d="M89.2692 106.222H133.904C123.563 81.0784 118.393 59.7196 118.393 42.1452L104.929 40.1391C94.3471 57.1573 91.3588 78.1101 89.2692 106.222Z" fill="#DDE3E9"/>
<path fill-rule="evenodd" clip-rule="evenodd" d="M104.643 40.1486C104.645 40.1454 104.647 40.1423 104.649 40.1391H105.528C106.579 40.1753 108.181 40.2405 110.333 40.3348L113.586 49.6323C113.931 60.968 115.94 83.8127 119.616 118.166H90.3567C90.4334 120.539 90.5599 122.934 90.7361 125.351H68.9808C72.235 88.6366 84.119 60.2328 104.633 40.1391L104.643 40.1486V40.1486Z" fill="#5CB2D7"/>
<path fill-rule="evenodd" clip-rule="evenodd" d="M92.2894 87.8072C93.1221 102.597 95.207 112.793 98.544 118.395H90.3643C90.0062 107.753 90.6479 97.5577 92.2894 87.8072V87.8072Z" fill="black" fill-opacity="0.1"/>
<path fill-rule="evenodd" clip-rule="evenodd" d="M96.8692 100.425L111.297 93.7176V100.425H96.8692Z" fill="white" fill-opacity="0.2"/>
</svg>
