<svg width="364" height="345" viewBox="0 0 364 345" fill="none" xmlns="http://www.w3.org/2000/svg">
<path fill-rule="evenodd" clip-rule="evenodd" d="M47.258 101.173C50.1225 100.823 53.1799 100.947 55.8439 102.077C61.5085 104.482 63.1187 111.174 63.041 116.614C62.9573 122.468 61.7141 128.863 66.1651 133.58C68.2112 135.748 70.7563 137.408 72.7654 139.617C74.9122 141.977 76.5966 144.677 77.8438 147.577C80.1339 152.903 81.2578 159.167 79.1637 164.754C77.3199 169.674 72.6811 174.114 73.6834 179.708C74.729 185.543 80.6122 190.004 84.2904 194.351C88.4532 199.269 92.2859 205.556 92.9155 212.006C93.5193 218.188 90.8284 224.44 86.6988 229.113C78.4477 238.451 66.0452 243.028 53.5396 243C48.23 242.988 42.2186 242.748 37.6366 239.895C36.2204 239.013 35.4733 238.023 34.6315 236.648C33.8767 235.414 32.8796 234.612 31.7255 233.739C29.1899 231.822 27.3587 229.239 26.1901 226.347C21.6522 215.114 25.2792 201.218 31.6312 191.243C33.1364 188.88 34.3686 186.605 33.6374 183.789C32.8744 180.848 30.999 178.196 29.3403 175.669C27.7011 173.17 25.8299 170.787 24.5488 168.087C23.207 165.257 22.8292 162.294 23.0662 159.198C23.5118 153.381 26.0227 148.013 29.5777 143.336C33.0017 138.83 37.0221 134.518 37.0311 128.615C37.041 122.357 32.8577 116.791 34.6399 110.429C35.3778 107.795 36.86 105.092 39.2486 103.513C41.5393 101.998 44.5639 101.502 47.258 101.173Z" fill="#DDE3E9"/>
<path fill-rule="evenodd" clip-rule="evenodd" d="M45.3862 111.176C45.4399 110.336 46.4367 109.832 47.2215 110.051C48.2545 110.34 48.2346 111.305 48.2073 112.165C48.1237 114.808 48.5063 117.377 49.1417 119.942C50.4622 125.274 52.9027 130.186 54.8362 135.308C56.768 140.425 57.6748 145.709 56.5416 151.124C55.4732 156.23 53.7948 161.203 52.7015 166.315C51.7378 170.821 50.7123 175.573 52.1799 180.067C53.5921 184.393 56.7142 187.916 58.9625 191.825C63.6165 199.918 65.6813 208.896 65.9574 218.135C66.0854 222.425 65.9702 226.755 64.9749 230.963C64.402 233.386 63.6322 236.66 61.5559 238.333C60.5985 239.105 58.961 239.371 58.1552 238.229C57.3987 237.158 58.0624 235.499 58.3025 234.357C59.3427 229.413 59.5519 224.361 59.3029 219.342C59.0619 214.48 58.4874 209.626 56.9572 204.982C55.5369 200.673 53.3792 196.802 50.8398 193.032C48.2521 189.191 45.562 185.341 44.4928 180.789C43.4065 176.166 44.289 171.462 45.4691 166.927C46.7171 162.131 48.3518 157.472 50.0417 152.805C51.6886 148.258 52.2724 143.955 51.3632 139.196C49.5672 129.794 44.7598 120.968 45.3862 111.176Z" fill="#C5CFD6"/>
<path fill-rule="evenodd" clip-rule="evenodd" d="M122.892 112.582C126.437 113.659 129.958 115.395 132.485 118.118C137.858 123.909 136.209 132.661 133.243 139.053C130.05 145.933 125.212 152.849 127.94 160.743C129.193 164.372 131.301 167.659 132.49 171.316C133.761 175.224 134.309 179.294 134.239 183.372C134.11 190.862 132.118 198.855 126.708 204.373C121.945 209.232 114.158 212.07 112.377 219.206C110.518 226.651 115.061 234.988 117.078 242.041C119.36 250.024 120.533 259.453 117.862 267.409C115.303 275.034 108.842 281.028 101.528 284.406C86.9152 291.156 69.9487 290.117 55.2958 283.578C49.0748 280.801 42.1506 277.391 38.2845 271.633C37.0897 269.853 36.7364 268.294 36.476 266.23C36.2426 264.378 35.4972 262.911 34.6048 261.278C32.644 257.692 31.8618 253.684 32.0198 249.656C32.6345 234.011 44.2336 219.464 56.9562 210.972C59.9708 208.96 62.6181 206.912 63.2494 203.2C63.9086 199.325 63.1108 195.213 62.5012 191.361C61.899 187.554 60.9638 183.763 60.8888 179.902C60.8105 175.858 61.9334 172.157 63.8482 168.619C67.4453 161.972 73.2275 156.93 79.8696 153.247C86.2673 149.7 93.2616 146.692 96.3928 139.715C99.7118 132.32 97.7474 123.561 103.2 116.964C105.458 114.233 108.625 111.807 112.262 111.182C115.749 110.583 119.558 111.57 122.892 112.582Z" fill="#DDE3E9"/>
<path fill-rule="evenodd" clip-rule="evenodd" d="M115.651 124.811C116.154 123.844 117.584 123.769 118.387 124.44C119.443 125.324 118.914 126.456 118.432 127.46C116.95 130.547 116.052 133.789 115.452 137.159C114.204 144.166 114.485 151.262 114.063 158.341C113.642 165.414 111.935 172.147 107.774 177.965C103.85 183.452 99.2832 188.462 95.3274 193.943C91.8408 198.773 88.1533 203.863 87.5156 209.954C86.9012 215.817 88.7069 221.626 89.2882 227.434C90.4919 239.457 88.2042 251.171 83.6884 262.257C81.5911 267.405 79.1887 272.472 75.8211 276.933C73.8824 279.503 71.2673 282.977 67.9634 283.869C66.4399 284.281 64.3855 283.739 64.0415 281.964C63.7181 280.298 65.3628 278.682 66.2417 277.455C70.047 272.146 72.9376 266.273 75.2753 260.198C77.5399 254.314 79.4103 248.265 80.0529 241.963C80.6491 236.116 80.1532 230.401 79.1581 224.606C78.1443 218.701 77.0149 212.731 78.1486 206.781C79.2996 200.736 82.7953 195.628 86.5501 190.876C90.5215 185.85 94.8729 181.19 99.293 176.549C103.6 172.027 106.536 167.238 107.966 161.126C110.79 149.049 109.791 136.078 115.651 124.811Z" fill="#C5CFD6"/>
<path fill-rule="evenodd" clip-rule="evenodd" d="M13.306 157C19.2003 157 24.3823 160.124 27.9531 164.558C32.133 169.748 32.9772 176.086 34.6745 182.272C35.5191 185.35 36.9717 188.406 39.5174 190.498C41.8327 192.4 44.7721 192.78 47.5435 193.71C53.0822 195.567 57.5547 200.041 59.321 205.499C61.4758 212.158 59.1934 218.873 59.5864 225.622C59.9472 231.819 66.0576 235.685 70.9738 238.656C75.8215 241.586 80.1886 244.328 81.6487 250.035C83.1969 256.088 83.7164 262.844 81.5719 268.823C78.0015 278.779 67.5525 283.163 57.4561 283.842C48.2932 284.459 36.7719 283.491 29.8907 276.84C25.773 272.86 24.2819 267.293 24.4669 261.755C24.5818 258.311 25.264 254.899 26.146 251.571C26.7711 249.213 27.6157 246.864 27.8563 244.427C28.4959 237.942 22.5026 236.697 17.401 234.916C10.9183 232.654 6.37987 228.38 3.22399 222.425C0.285002 216.881 -0.948134 210.658 0.813701 204.554C1.71353 201.437 3.3456 198.61 5.55902 196.205C6.53336 195.146 7.90665 194.263 8.78608 193.151C9.60694 192.112 9.42823 190.766 9.14534 189.55C7.83732 183.931 3.76196 179.278 2.30451 173.668C0.988698 168.605 1.76655 162.304 6.39544 159.038C8.3953 157.627 10.8616 157.016 13.306 157Z" fill="#C5CFD6"/>
<path fill-rule="evenodd" clip-rule="evenodd" d="M21.3377 171.641C27.585 178.296 29.2831 187.325 29.7815 196.076C30.0606 200.983 29.7701 206.159 31.2118 210.919C32.4454 214.993 35.3373 218.107 38.3183 221.051C44.3188 226.975 51.0108 232.999 52.7659 241.574C53.7957 246.606 53.1006 251.804 54.5236 256.78C55.8175 261.304 58.0956 265.748 60.8665 269.568C63.0975 272.645 66.0042 275 68.443 277.867C69.1871 278.743 70.2529 280.031 69.9458 281.267C69.5865 282.714 67.7431 283.172 66.4352 282.945C63.3859 282.415 60.8191 279.503 58.8253 277.386C55.9098 274.291 53.4323 270.962 51.4187 267.227C49.1832 263.08 47.3833 258.679 46.6142 254.026C45.8161 249.199 46.2133 244.168 44.3909 239.535C41.3242 231.74 33.886 227.14 28.5082 221.064C21.8077 213.494 22.807 204.072 23.4933 194.759C23.8703 189.641 24.2451 183.862 21.6591 179.189C20.672 177.406 18.4711 175.743 18.0467 173.715C17.6579 171.858 19.7797 169.981 21.3377 171.641Z" fill="#AFB9C5"/>
<path fill-rule="evenodd" clip-rule="evenodd" d="M28 281C28.0004 319.058 34.2112 339 67.0001 339C99.789 339 106 319.058 106 281H28Z" fill="#22D1EE"/>
<path fill-rule="evenodd" clip-rule="evenodd" d="M186.262 51.4905C181.654 46.0817 178.536 39.4532 179.057 32.0258C180.558 10.6253 210.349 15.3331 216.143 26.1343C221.938 36.9354 221.25 64.3333 213.76 66.2638C210.774 67.0337 204.411 65.1478 197.935 61.2446L202 90.0003H178L186.262 51.4905Z" fill="#B28B67"/>
<path fill-rule="evenodd" clip-rule="evenodd" d="M226.776 11.1608C226.279 9.41383 224.942 7.91809 223.14 7.47434C222.704 7.36671 222.252 7.32323 221.803 7.34136C221.642 7.34779 221.596 7.39429 221.521 7.28153C221.465 7.19793 221.464 6.99369 221.441 6.89545C221.369 6.58994 221.28 6.28824 221.169 5.99436C220.792 4.99201 220.159 4.10491 219.395 3.35763C217.967 1.95961 216.037 0.994757 214.032 0.820202C212.934 0.724715 211.845 0.903014 210.807 1.26001C210.27 1.44481 209.749 1.67492 209.242 1.92934C209.089 2.00591 208.594 2.38096 208.441 2.35666C208.271 2.32987 207.931 1.90917 207.793 1.80357C206.092 0.498212 203.991 -0.0150137 201.872 0.0003334C199.48 0.0183476 197.177 0.137871 195.182 1.59605C194.759 1.90477 194.357 2.24279 193.974 2.59866C193.772 2.78602 193.577 2.98041 193.391 3.18288C193.278 3.30503 193.169 3.42994 193.064 3.55819C192.885 3.7759 192.914 3.84742 192.663 3.69552C191.703 3.11222 190.591 2.83942 189.47 2.97713C188.805 3.05896 188.157 3.25873 187.542 3.52168C187.333 3.61119 186.849 3.96825 186.626 3.97173C186.404 3.97515 185.927 3.64416 185.699 3.56003C184.467 3.10552 183.14 2.99348 181.846 3.2035C180.511 3.42022 179.2 3.95282 178.069 4.6888C177.525 5.04284 177.05 5.4351 176.669 5.96152C176.504 6.18882 176.356 6.42924 176.169 6.63998C176.06 6.76338 175.844 6.89 175.785 7.04616C175.82 6.95265 174.325 6.37631 174.184 6.33947C173.432 6.14317 172.667 6.18297 171.931 6.42517C170.547 6.8806 169.357 7.90193 168.379 8.94907C167.877 9.48693 167.437 10.0815 167.064 10.7149C166.885 11.0183 166.721 11.3303 166.572 11.649C166.499 11.8034 166.451 11.9966 166.356 12.1357C166.232 12.3149 166.15 12.3183 165.927 12.3965C164.794 12.7932 163.762 13.4649 162.975 14.3724C162.18 15.2906 161.664 16.4212 161.448 17.6119C161.435 17.6821 161.427 17.9727 161.386 18.0107C161.33 18.063 161.102 18.0398 161.016 18.05C160.718 18.085 160.421 18.137 160.129 18.2063C159.59 18.3338 159.066 18.5215 158.57 18.767C156.636 19.7239 155.253 21.5178 154.576 23.5364C153.865 25.6549 153.878 28.0819 154.727 30.1608C154.864 30.4966 155.027 30.8225 155.219 31.1309C155.336 31.3201 155.374 31.3206 155.298 31.5192C155.213 31.7401 155.057 31.9548 154.956 32.1707C154.626 32.8751 154.396 33.6223 154.25 34.3854C154.011 35.6372 153.892 36.9526 154.128 38.2139C154.238 38.7996 154.428 39.3721 154.719 39.8937C154.868 40.1597 155.042 40.412 155.238 40.6453C155.339 40.7665 155.447 40.8822 155.561 40.993C155.625 41.0563 155.71 41.1118 155.765 41.1825C155.899 41.3549 155.927 41.2132 155.858 41.4664C155.761 41.8204 155.542 42.1697 155.408 42.5143C155.269 42.8693 155.144 43.2292 155.03 43.5926C154.798 44.3285 154.602 45.0778 154.479 45.8399C154.244 47.3031 154.285 48.8622 154.977 50.2052C155.273 50.7796 155.698 51.2835 156.213 51.6755C156.465 51.8672 156.738 52.0325 157.024 52.1683C157.171 52.2382 157.359 52.2681 157.426 52.4104C157.499 52.5634 157.391 52.8673 157.367 53.0384C157.154 54.5266 157.047 56.0892 157.49 57.5477C157.897 58.891 158.794 60.077 159.959 60.8623C162.219 62.3855 165.265 62.2996 167.639 61.0802C168.258 60.7622 168.837 60.3676 169.353 59.902C170.669 61.6725 173.375 61.6165 175.297 61.112C177.692 60.4835 179.614 58.8183 180.721 56.6304C182.235 58.4733 185.412 57.8754 186.462 55.8761C186.719 55.3867 186.871 54.8474 186.946 54.3017C186.986 54.0147 186.961 53.7252 186.99 53.4405C187.028 53.0778 187.27 52.7253 187.41 52.3743C187.681 51.6913 187.849 50.9858 187.857 50.2491C187.86 49.8644 187.812 49.4896 187.775 49.108C187.742 48.7646 187.837 48.4446 187.892 48.1056C187.277 48.2067 186.529 48.0411 185.95 47.863C185.383 47.6882 184.851 47.2279 184.45 46.8076C183.519 45.8314 182.951 44.5518 182.562 43.2782C181.708 40.483 182.058 37.1293 184.87 35.5952C186.18 34.8806 190.103 34.8829 191.663 35.2361C193.304 35.6075 195.163 39.2267 195.255 39.5669C195.311 39.7774 195.283 40.038 195.476 40.1783C195.901 40.4868 196.602 39.9515 196.916 39.6873C197.457 39.2313 197.843 38.6246 198.177 38.0097C198.905 36.67 199.492 35.2333 199.907 33.7666C200.227 32.6359 200.431 31.4699 200.849 30.368C201.265 29.2715 201.92 28.2915 202.94 27.6704C204.048 26.9947 205.319 26.6388 206.536 26.2142C207.743 25.7933 208.929 25.279 209.864 24.386C210.07 24.1897 210.269 23.981 210.435 23.7499C210.565 23.5674 210.695 23.218 210.894 23.1023C211.203 22.9223 211.655 23.3904 211.923 23.5604C213.243 24.399 214.345 25.5686 215.233 26.8463C216.117 28.1171 216.842 29.3398 217.431 30.7588C217.868 31.8112 218.141 33.159 218.909 34.0214C219.252 34.4065 221.803 34.6395 222.629 34.3033C223.455 33.9671 224.381 33.0941 224.658 32.547C224.942 31.987 225.01 31.3718 224.889 30.7588C224.817 30.3981 224.672 30.0612 224.592 29.707C224.525 29.4094 224.464 29.1282 224.319 28.8555C224.045 28.339 223.576 27.9677 223.01 27.8124C223.599 27.2698 224.086 26.6206 224.424 25.8949C224.774 25.141 225.072 24.2242 225.156 23.3967C225.224 22.7246 225.119 22.0283 224.751 21.4507C224.365 20.8448 223.681 20.4495 223.089 20.0716C223.993 19.3646 224.767 18.5047 225.402 17.5528C226.639 15.7015 227.404 13.3679 226.776 11.1608Z" fill="#191847"/>
<path fill-rule="evenodd" clip-rule="evenodd" d="M111 215H226C234.837 215 242 222.164 242 231V323C242 331.837 234.837 339 226 339H111C102.163 339 95 331.837 95 323V231C95 222.164 102.163 215 111 215ZM127 243C124.791 243 123 244.791 123 247V307C123 309.209 124.791 311 127 311H210C212.209 311 214 309.209 214 307V247C214 244.791 212.209 243 210 243H127Z" fill="black"/>
<path fill-rule="evenodd" clip-rule="evenodd" d="M313.509 335.66C300.697 307.302 291.43 282.609 287.711 269.58C281.343 247.273 276.498 227.644 275.273 220.313C272.353 202.833 297.735 201.815 301.09 210.502C306.168 223.651 315.033 266.853 325.685 332.108L313.509 335.66ZM164.888 246.664C176.644 242.017 217.812 227.475 237.667 223.362C243.373 222.179 248.903 221.081 254.102 220.089C269.556 217.138 277.563 245.018 262.679 247.16C225.612 252.495 173.063 258.004 168.566 258.622C162.263 259.488 157.5 249.584 164.888 246.664Z" fill="#B28B67"/>
<path fill-rule="evenodd" clip-rule="evenodd" d="M263.587 212.417L200 180.047V173H207.562C269.08 188.676 300.515 198.722 301.869 203.138C301.883 203.186 301.897 203.233 301.909 203.281C301.94 203.322 301.97 203.362 302 203.404C314.192 220.17 321.493 302.027 323.889 308.156L300.528 311.642C291.591 278.504 263 255.418 263.759 215.729C263.554 214.565 263.503 213.461 263.587 212.417Z" fill="#2FC5DE"/>
<path fill-rule="evenodd" clip-rule="evenodd" d="M205.283 231.641C199.465 230.476 194.107 229.437 189.523 228.633C159.909 223.438 151.274 207.587 156.38 173H210.942C219.855 175.561 266.174 194.985 290.207 205.317C306.113 212.155 301.099 236.805 292.091 243.22C292.042 243.613 291.88 243.881 291.591 244C243.137 264.083 204.805 253.546 192 256.913L186.077 238.229L205.283 231.641Z" fill="#22D1EE"/>
<path fill-rule="evenodd" clip-rule="evenodd" d="M168.908 243.694C165.733 243.998 163.479 244.475 162.147 245.125C160.526 245.915 158.293 247.339 155.446 249.395C156.364 251.275 164.605 268.173 180.171 300.089C185.169 299.282 187.149 297.375 186.112 294.367C185.075 291.36 184.239 288.849 183.603 286.835L182.615 258.15C182.596 257.598 182.133 257.166 181.581 257.185C181.572 257.185 181.562 257.186 181.553 257.186L177.14 257.464C174.633 255.434 172.979 253.598 172.177 251.955C171.526 250.621 171.167 248.515 171.098 245.637L171.098 245.637C171.071 244.533 170.154 243.659 169.05 243.686C169.003 243.687 168.955 243.69 168.908 243.694Z" fill="#E4E4E4"/>
<path fill-rule="evenodd" clip-rule="evenodd" d="M307.678 330.402C306.559 333.389 306 335.623 306 337.106C306 338.909 306.3 341.541 306.901 345C308.993 345 327.794 345 363.303 345C364.769 340.155 363.923 337.539 360.765 337.153C357.607 336.766 354.984 336.417 352.895 336.106L326.68 324.419C326.176 324.194 325.584 324.421 325.359 324.925C325.356 324.934 325.352 324.943 325.348 324.951L323.663 329.039C320.74 330.403 318.364 331.085 316.537 331.085C315.052 331.085 313.001 330.485 310.384 329.286L310.384 329.286C309.38 328.825 308.193 329.266 307.733 330.27C307.713 330.314 307.695 330.358 307.678 330.402Z" fill="#E4E4E4"/>
<path fill-rule="evenodd" clip-rule="evenodd" d="M258.044 157.123L286.372 184.758C294.615 188.274 301.368 192.156 306.633 196.404C307.817 197.832 309.106 200.569 303.535 199.344C297.965 198.12 292.051 197.082 291.004 198.894C289.957 200.705 293.042 203.481 291.107 205.852C289.817 207.433 285.479 202.405 278.093 190.77L248.636 173.403L258.044 157.123ZM132.308 161.02L153.205 161.102C140.302 202.756 133.336 224.857 132.308 227.406C129.994 233.14 134.891 241.874 136.985 246.567C130.165 249.619 130.891 238.317 122.288 242.32C114.435 245.973 108.462 252.593 99.3891 246.995C98.2737 246.306 97.0514 243.715 100.005 241.69C107.362 236.645 117.965 227.815 119.398 224.909C121.352 220.945 125.655 199.649 132.308 161.02Z" fill="#B28B67"/>
<path fill-rule="evenodd" clip-rule="evenodd" d="M191.695 73.3324L200.342 71.8492C215.23 109.039 241.222 142.831 278.319 173.225L250.287 207.282C213.194 164.005 190.33 119.355 191.695 73.3324Z" fill="#5CB2D7"/>
<path fill-rule="evenodd" clip-rule="evenodd" d="M154 182H231C213.161 138.625 204.241 101.779 204.241 71.4611L181.014 68.0003C162.76 97.3587 157.605 133.505 154 182Z" fill="#DDE3E9"/>
<path fill-rule="evenodd" clip-rule="evenodd" d="M180.522 68.0168C180.525 68.0113 180.529 68.0058 180.532 68.0003H182.048C183.862 68.0628 186.625 68.1754 190.338 68.338L195.95 84.3772C196.544 103.933 200.011 143.342 206.351 202.606H155.876C156.008 206.699 156.227 210.831 156.531 215H119C124.614 151.664 145.115 102.664 180.504 68.0003L180.522 68.0168V68.0168Z" fill="#5CB2D7"/>
<path fill-rule="evenodd" clip-rule="evenodd" d="M159.21 150.233C160.647 175.748 164.243 193.337 170 203H155.889C155.271 184.643 156.378 167.054 159.21 150.233V150.233Z" fill="black" fill-opacity="0.1"/>
<path fill-rule="evenodd" clip-rule="evenodd" d="M167.111 172L192 160.43V172H167.111Z" fill="white" fill-opacity="0.2"/>
</svg>
