<svg width="542" height="622" viewBox="0 0 542 622" fill="none" xmlns="http://www.w3.org/2000/svg">
<path fill-rule="evenodd" clip-rule="evenodd" d="M47.258 378.173C50.1225 377.823 53.1799 377.947 55.8439 379.077C61.5085 381.482 63.1187 388.174 63.041 393.614C62.9573 399.468 61.7141 405.863 66.1651 410.58C68.2112 412.748 70.7563 414.408 72.7654 416.617C74.9122 418.977 76.5966 421.677 77.8438 424.577C80.1339 429.903 81.2578 436.167 79.1637 441.754C77.3199 446.674 72.6811 451.114 73.6834 456.708C74.729 462.543 80.6122 467.004 84.2904 471.351C88.4532 476.269 92.2859 482.556 92.9155 489.006C93.5193 495.188 90.8284 501.44 86.6988 506.113C78.4477 515.451 66.0452 520.028 53.5396 520C48.23 519.988 42.2186 519.748 37.6366 516.895C36.2204 516.013 35.4733 515.023 34.6315 513.648C33.8767 512.414 32.8796 511.612 31.7255 510.739C29.1899 508.822 27.3587 506.239 26.1901 503.347C21.6522 492.114 25.2792 478.218 31.6312 468.243C33.1364 465.88 34.3686 463.605 33.6374 460.789C32.8744 457.848 30.999 455.196 29.3403 452.669C27.7011 450.17 25.8299 447.787 24.5488 445.087C23.207 442.257 22.8292 439.294 23.0662 436.198C23.5118 430.381 26.0227 425.013 29.5777 420.336C33.0017 415.83 37.0221 411.518 37.0311 405.615C37.041 399.357 32.8577 393.791 34.6399 387.429C35.3778 384.795 36.86 382.092 39.2486 380.513C41.5393 378.998 44.5639 378.502 47.258 378.173Z" fill="#DDE3E9"/>
<path fill-rule="evenodd" clip-rule="evenodd" d="M45.3862 388.176C45.4399 387.336 46.4367 386.832 47.2215 387.051C48.2545 387.34 48.2346 388.305 48.2073 389.165C48.1237 391.808 48.5063 394.377 49.1417 396.942C50.4622 402.274 52.9027 407.186 54.8362 412.308C56.768 417.425 57.6748 422.709 56.5416 428.124C55.4732 433.23 53.7948 438.203 52.7015 443.315C51.7378 447.821 50.7123 452.573 52.1799 457.067C53.5921 461.393 56.7142 464.916 58.9625 468.825C63.6165 476.918 65.6813 485.896 65.9574 495.135C66.0854 499.425 65.9702 503.755 64.9749 507.963C64.402 510.386 63.6322 513.66 61.5559 515.333C60.5985 516.105 58.961 516.371 58.1552 515.229C57.3987 514.158 58.0624 512.499 58.3025 511.357C59.3427 506.413 59.5519 501.361 59.3029 496.342C59.0619 491.48 58.4874 486.626 56.9572 481.982C55.5369 477.673 53.3792 473.802 50.8398 470.032C48.2521 466.191 45.562 462.341 44.4928 457.789C43.4065 453.166 44.289 448.462 45.4691 443.927C46.7171 439.131 48.3518 434.472 50.0417 429.805C51.6886 425.258 52.2724 420.955 51.3632 416.196C49.5672 406.794 44.7598 397.968 45.3862 388.176Z" fill="#C5CFD6"/>
<path fill-rule="evenodd" clip-rule="evenodd" d="M122.892 389.582C126.437 390.659 129.958 392.395 132.485 395.118C137.858 400.909 136.209 409.661 133.243 416.053C130.05 422.933 125.212 429.849 127.94 437.743C129.193 441.372 131.301 444.659 132.49 448.316C133.761 452.224 134.309 456.294 134.239 460.372C134.11 467.862 132.118 475.855 126.708 481.373C121.945 486.232 114.158 489.07 112.377 496.206C110.518 503.651 115.061 511.988 117.078 519.041C119.36 527.024 120.533 536.453 117.862 544.409C115.303 552.034 108.842 558.028 101.528 561.406C86.9152 568.156 69.9487 567.117 55.2958 560.578C49.0748 557.801 42.1506 554.391 38.2845 548.633C37.0897 546.853 36.7364 545.294 36.476 543.23C36.2426 541.378 35.4972 539.911 34.6048 538.278C32.644 534.692 31.8618 530.684 32.0198 526.656C32.6345 511.011 44.2336 496.464 56.9562 487.972C59.9708 485.96 62.6181 483.912 63.2494 480.2C63.9086 476.325 63.1108 472.213 62.5012 468.361C61.899 464.554 60.9638 460.763 60.8888 456.902C60.8105 452.858 61.9334 449.157 63.8482 445.619C67.4453 438.972 73.2275 433.93 79.8696 430.247C86.2673 426.7 93.2616 423.692 96.3928 416.715C99.7118 409.32 97.7474 400.561 103.2 393.964C105.458 391.233 108.625 388.807 112.262 388.182C115.749 387.583 119.558 388.57 122.892 389.582Z" fill="#DDE3E9"/>
<path fill-rule="evenodd" clip-rule="evenodd" d="M115.651 401.811C116.154 400.844 117.584 400.769 118.387 401.44C119.443 402.324 118.914 403.456 118.432 404.46C116.95 407.547 116.052 410.789 115.452 414.159C114.204 421.166 114.485 428.262 114.063 435.341C113.642 442.414 111.935 449.147 107.774 454.965C103.85 460.452 99.2832 465.462 95.3274 470.943C91.8408 475.773 88.1533 480.863 87.5156 486.954C86.9012 492.817 88.7069 498.626 89.2882 504.434C90.4919 516.457 88.2042 528.171 83.6884 539.257C81.5911 544.405 79.1887 549.472 75.8211 553.933C73.8824 556.503 71.2673 559.977 67.9634 560.869C66.4399 561.281 64.3855 560.739 64.0415 558.964C63.7181 557.298 65.3628 555.682 66.2417 554.455C70.047 549.146 72.9376 543.273 75.2753 537.198C77.5399 531.314 79.4103 525.265 80.0529 518.963C80.6491 513.116 80.1532 507.401 79.1581 501.606C78.1443 495.701 77.0149 489.731 78.1486 483.781C79.2996 477.736 82.7953 472.628 86.5501 467.876C90.5215 462.85 94.8729 458.19 99.293 453.549C103.6 449.027 106.536 444.238 107.966 438.126C110.79 426.049 109.791 413.078 115.651 401.811Z" fill="#C5CFD6"/>
<path fill-rule="evenodd" clip-rule="evenodd" d="M13.306 434C19.2003 434 24.3823 437.124 27.9531 441.558C32.133 446.748 32.9772 453.086 34.6745 459.272C35.5191 462.35 36.9717 465.406 39.5174 467.498C41.8327 469.4 44.7721 469.78 47.5435 470.71C53.0822 472.567 57.5547 477.041 59.321 482.499C61.4758 489.158 59.1934 495.873 59.5864 502.622C59.9472 508.819 66.0576 512.685 70.9738 515.656C75.8215 518.586 80.1886 521.328 81.6487 527.035C83.1969 533.088 83.7164 539.844 81.5719 545.823C78.0015 555.779 67.5525 560.163 57.4561 560.842C48.2932 561.459 36.7719 560.491 29.8907 553.84C25.773 549.86 24.2819 544.293 24.4669 538.755C24.5818 535.311 25.264 531.899 26.146 528.571C26.7711 526.213 27.6157 523.864 27.8563 521.427C28.4959 514.942 22.5026 513.697 17.401 511.916C10.9183 509.654 6.37987 505.38 3.22399 499.425C0.285002 493.881 -0.948134 487.658 0.813701 481.554C1.71353 478.437 3.3456 475.61 5.55902 473.205C6.53336 472.146 7.90665 471.263 8.78608 470.151C9.60694 469.112 9.42823 467.766 9.14534 466.55C7.83732 460.931 3.76196 456.278 2.30451 450.668C0.988698 445.605 1.76655 439.304 6.39544 436.038C8.3953 434.627 10.8616 434.016 13.306 434Z" fill="#C5CFD6"/>
<path fill-rule="evenodd" clip-rule="evenodd" d="M21.3377 448.641C27.585 455.296 29.2831 464.325 29.7815 473.076C30.0606 477.983 29.7701 483.159 31.2118 487.919C32.4454 491.993 35.3373 495.107 38.3183 498.051C44.3188 503.975 51.0108 509.999 52.7659 518.574C53.7957 523.606 53.1006 528.804 54.5236 533.78C55.8175 538.304 58.0956 542.748 60.8665 546.568C63.0975 549.645 66.0042 552 68.443 554.867C69.1871 555.743 70.2529 557.031 69.9458 558.267C69.5865 559.714 67.7431 560.172 66.4352 559.945C63.3859 559.415 60.8191 556.503 58.8253 554.386C55.9098 551.291 53.4323 547.962 51.4187 544.227C49.1832 540.08 47.3833 535.679 46.6142 531.026C45.8161 526.199 46.2133 521.168 44.3909 516.535C41.3242 508.74 33.886 504.14 28.5082 498.064C21.8077 490.494 22.807 481.072 23.4933 471.759C23.8703 466.641 24.2451 460.862 21.6591 456.189C20.672 454.406 18.4711 452.743 18.0467 450.715C17.6579 448.858 19.7797 446.981 21.3377 448.641Z" fill="#AFB9C5"/>
<path fill-rule="evenodd" clip-rule="evenodd" d="M28 558C28.0004 596.058 34.2112 616 67.0001 616C99.789 616 106 596.058 106 558H28Z" fill="#22D1EE"/>
<path fill-rule="evenodd" clip-rule="evenodd" d="M186.262 328.49C181.654 323.082 178.536 316.453 179.057 309.026C180.558 287.625 210.349 292.333 216.143 303.134C221.938 313.935 221.25 341.333 213.76 343.264C210.774 344.034 204.411 342.148 197.935 338.245L202 367H178L186.262 328.49Z" fill="#B28B67"/>
<path fill-rule="evenodd" clip-rule="evenodd" d="M226.776 288.161C226.279 286.414 224.942 284.918 223.14 284.474C222.704 284.367 222.252 284.323 221.803 284.341C221.642 284.348 221.596 284.394 221.521 284.282C221.465 284.198 221.464 283.994 221.441 283.895C221.369 283.59 221.28 283.288 221.169 282.994C220.792 281.992 220.159 281.105 219.395 280.358C217.967 278.96 216.037 277.995 214.032 277.82C212.934 277.725 211.845 277.903 210.807 278.26C210.27 278.445 209.749 278.675 209.242 278.929C209.089 279.006 208.594 279.381 208.441 279.357C208.271 279.33 207.931 278.909 207.793 278.804C206.092 277.498 203.991 276.985 201.872 277C199.48 277.018 197.177 277.138 195.182 278.596C194.759 278.905 194.357 279.243 193.974 279.599C193.772 279.786 193.577 279.98 193.391 280.183C193.278 280.305 193.169 280.43 193.064 280.558C192.885 280.776 192.914 280.847 192.663 280.696C191.703 280.112 190.591 279.839 189.47 279.977C188.805 280.059 188.157 280.259 187.542 280.522C187.333 280.611 186.849 280.968 186.626 280.972C186.404 280.975 185.927 280.644 185.699 280.56C184.467 280.106 183.14 279.993 181.846 280.204C180.511 280.42 179.2 280.953 178.069 281.689C177.525 282.043 177.05 282.435 176.669 282.962C176.504 283.189 176.356 283.429 176.169 283.64C176.06 283.763 175.844 283.89 175.785 284.046C175.82 283.953 174.325 283.376 174.184 283.339C173.432 283.143 172.667 283.183 171.931 283.425C170.547 283.881 169.357 284.902 168.379 285.949C167.877 286.487 167.437 287.081 167.064 287.715C166.885 288.018 166.721 288.33 166.572 288.649C166.499 288.803 166.451 288.997 166.356 289.136C166.232 289.315 166.15 289.318 165.927 289.396C164.794 289.793 163.762 290.465 162.975 291.372C162.18 292.291 161.664 293.421 161.448 294.612C161.435 294.682 161.427 294.973 161.386 295.011C161.33 295.063 161.102 295.04 161.016 295.05C160.718 295.085 160.421 295.137 160.129 295.206C159.59 295.334 159.066 295.521 158.57 295.767C156.636 296.724 155.253 298.518 154.576 300.536C153.865 302.655 153.878 305.082 154.727 307.161C154.864 307.497 155.027 307.823 155.219 308.131C155.336 308.32 155.374 308.321 155.298 308.519C155.213 308.74 155.057 308.955 154.956 309.171C154.626 309.875 154.396 310.622 154.25 311.385C154.011 312.637 153.892 313.953 154.128 315.214C154.238 315.8 154.428 316.372 154.719 316.894C154.868 317.16 155.042 317.412 155.238 317.645C155.339 317.766 155.447 317.882 155.561 317.993C155.625 318.056 155.71 318.112 155.765 318.182C155.899 318.355 155.927 318.213 155.858 318.466C155.761 318.82 155.542 319.17 155.408 319.514C155.269 319.869 155.144 320.229 155.03 320.593C154.798 321.329 154.602 322.078 154.479 322.84C154.244 324.303 154.285 325.862 154.977 327.205C155.273 327.78 155.698 328.283 156.213 328.675C156.465 328.867 156.738 329.033 157.024 329.168C157.171 329.238 157.359 329.268 157.426 329.41C157.499 329.563 157.391 329.867 157.367 330.038C157.154 331.527 157.047 333.089 157.49 334.548C157.897 335.891 158.794 337.077 159.959 337.862C162.219 339.386 165.265 339.3 167.639 338.08C168.258 337.762 168.837 337.368 169.353 336.902C170.669 338.673 173.375 338.617 175.297 338.112C177.692 337.484 179.614 335.818 180.721 333.63C182.235 335.473 185.412 334.875 186.462 332.876C186.719 332.387 186.871 331.847 186.946 331.302C186.986 331.015 186.961 330.725 186.99 330.441C187.028 330.078 187.27 329.725 187.41 329.374C187.681 328.691 187.849 327.986 187.857 327.249C187.86 326.864 187.812 326.49 187.775 326.108C187.742 325.765 187.837 325.445 187.892 325.106C187.277 325.207 186.529 325.041 185.95 324.863C185.383 324.688 184.851 324.228 184.45 323.808C183.519 322.831 182.951 321.552 182.562 320.278C181.708 317.483 182.058 314.129 184.87 312.595C186.18 311.881 190.103 311.883 191.663 312.236C193.304 312.607 195.163 316.227 195.255 316.567C195.311 316.777 195.283 317.038 195.476 317.178C195.901 317.487 196.602 316.951 196.916 316.687C197.457 316.231 197.843 315.625 198.177 315.01C198.905 313.67 199.492 312.233 199.907 310.767C200.227 309.636 200.431 308.47 200.849 307.368C201.265 306.272 201.92 305.291 202.94 304.67C204.048 303.995 205.319 303.639 206.536 303.214C207.743 302.793 208.929 302.279 209.864 301.386C210.07 301.19 210.269 300.981 210.435 300.75C210.565 300.567 210.695 300.218 210.894 300.102C211.203 299.922 211.655 300.39 211.923 300.56C213.243 301.399 214.345 302.569 215.233 303.846C216.117 305.117 216.842 306.34 217.431 307.759C217.868 308.811 218.141 310.159 218.909 311.021C219.252 311.407 221.803 311.64 222.629 311.303C223.455 310.967 224.381 310.094 224.658 309.547C224.942 308.987 225.01 308.372 224.889 307.759C224.817 307.398 224.672 307.061 224.592 306.707C224.525 306.409 224.464 306.128 224.319 305.856C224.045 305.339 223.576 304.968 223.01 304.812C223.599 304.27 224.086 303.621 224.424 302.895C224.774 302.141 225.072 301.224 225.156 300.397C225.224 299.725 225.119 299.028 224.751 298.451C224.365 297.845 223.681 297.45 223.089 297.072C223.993 296.365 224.767 295.505 225.402 294.553C226.639 292.701 227.404 290.368 226.776 288.161Z" fill="#191847"/>
<path fill-rule="evenodd" clip-rule="evenodd" d="M111 492H226C234.837 492 242 499.164 242 508V600C242 608.837 234.837 616 226 616H111C102.163 616 95 608.837 95 600V508C95 499.164 102.163 492 111 492ZM127 520C124.791 520 123 521.791 123 524V584C123 586.209 124.791 588 127 588H210C212.209 588 214 586.209 214 584V524C214 521.791 212.209 520 210 520H127Z" fill="black"/>
<path fill-rule="evenodd" clip-rule="evenodd" d="M313.509 612.66C300.697 584.302 291.43 559.609 287.711 546.58C281.343 524.273 276.498 504.644 275.273 497.313C272.353 479.833 297.735 478.815 301.09 487.502C306.168 500.651 315.033 543.853 325.685 609.108L313.509 612.66ZM164.888 523.664C176.644 519.017 217.812 504.475 237.667 500.362C243.373 499.179 248.903 498.081 254.102 497.089C269.556 494.138 277.563 522.018 262.679 524.16C225.612 529.495 173.063 535.004 168.566 535.622C162.263 536.488 157.5 526.584 164.888 523.664Z" fill="#B28B67"/>
<path fill-rule="evenodd" clip-rule="evenodd" d="M263.587 489.417L200 457.047V450H207.562C269.08 465.676 300.515 475.722 301.869 480.138C301.883 480.186 301.897 480.233 301.909 480.281C301.94 480.322 301.97 480.362 302 480.404C314.192 497.17 321.493 579.027 323.889 585.156L300.528 588.642C291.591 555.504 263 532.418 263.759 492.729C263.554 491.565 263.503 490.461 263.587 489.417Z" fill="#2FC5DE"/>
<path fill-rule="evenodd" clip-rule="evenodd" d="M205.283 508.641C199.465 507.476 194.107 506.437 189.523 505.633C159.909 500.438 151.274 484.587 156.38 450H210.942C219.855 452.561 266.174 471.985 290.207 482.317C306.113 489.155 301.099 513.805 292.091 520.22C292.042 520.613 291.88 520.881 291.591 521C243.137 541.083 204.805 530.546 192 533.913L186.077 515.229L205.283 508.641Z" fill="#22D1EE"/>
<path fill-rule="evenodd" clip-rule="evenodd" d="M168.908 520.694C165.733 520.998 163.479 521.475 162.147 522.125C160.526 522.915 158.293 524.339 155.446 526.395C156.364 528.275 164.605 545.173 180.171 577.089C185.169 576.282 187.149 574.375 186.112 571.367C185.075 568.36 184.239 565.849 183.603 563.835L182.615 535.15C182.596 534.598 182.133 534.166 181.581 534.185C181.572 534.185 181.562 534.186 181.553 534.186L177.14 534.464C174.633 532.434 172.979 530.598 172.177 528.955C171.526 527.621 171.167 525.515 171.098 522.637L171.098 522.637C171.071 521.533 170.154 520.659 169.05 520.686C169.003 520.687 168.955 520.69 168.908 520.694Z" fill="#E4E4E4"/>
<path fill-rule="evenodd" clip-rule="evenodd" d="M307.678 607.402C306.559 610.389 306 612.623 306 614.106C306 615.909 306.3 618.541 306.901 622C308.993 622 327.794 622 363.303 622C364.769 617.155 363.923 614.539 360.765 614.153C357.607 613.766 354.984 613.417 352.895 613.106L326.68 601.419C326.176 601.194 325.584 601.421 325.359 601.925C325.356 601.934 325.352 601.943 325.348 601.951L323.663 606.039C320.74 607.403 318.364 608.085 316.537 608.085C315.052 608.085 313.001 607.485 310.384 606.286L310.384 606.286C309.38 605.825 308.193 606.266 307.733 607.27C307.713 607.314 307.695 607.358 307.678 607.402Z" fill="#E4E4E4"/>
<path fill-rule="evenodd" clip-rule="evenodd" d="M258.044 434.123L286.372 461.758C294.615 465.274 301.368 469.156 306.633 473.404C307.817 474.832 309.106 477.569 303.535 476.344C297.965 475.12 292.051 474.082 291.004 475.894C289.957 477.705 293.042 480.481 291.107 482.852C289.817 484.433 285.479 479.405 278.093 467.77L248.636 450.403L258.044 434.123ZM132.308 438.02L153.205 438.102C140.302 479.756 133.336 501.857 132.308 504.406C129.994 510.14 134.891 518.874 136.985 523.567C130.165 526.619 130.891 515.317 122.288 519.32C114.435 522.973 108.462 529.593 99.3891 523.995C98.2737 523.306 97.0514 520.715 100.005 518.69C107.362 513.645 117.965 504.815 119.398 501.909C121.352 497.945 125.655 476.649 132.308 438.02Z" fill="#B28B67"/>
<path fill-rule="evenodd" clip-rule="evenodd" d="M191.695 350.332L200.342 348.849C215.23 386.039 241.222 419.831 278.319 450.225L250.287 484.282C213.194 441.005 190.33 396.355 191.695 350.332Z" fill="#5CB2D7"/>
<path fill-rule="evenodd" clip-rule="evenodd" d="M154 459H231C213.161 415.625 204.241 378.779 204.241 348.461L181.014 345C162.76 374.359 157.605 410.505 154 459Z" fill="#DDE3E9"/>
<path fill-rule="evenodd" clip-rule="evenodd" d="M180.522 345.017C180.525 345.011 180.529 345.006 180.532 345H182.048C183.862 345.063 186.625 345.175 190.338 345.338L195.95 361.377C196.544 380.933 200.011 420.342 206.351 479.606H155.876C156.008 483.699 156.227 487.831 156.531 492H119C124.614 428.664 145.115 379.664 180.504 345L180.522 345.017V345.017Z" fill="#5CB2D7"/>
<path fill-rule="evenodd" clip-rule="evenodd" d="M159.21 427.233C160.647 452.748 164.243 470.337 170 480H155.889C155.271 461.643 156.378 444.054 159.21 427.233V427.233Z" fill="black" fill-opacity="0.1"/>
<path fill-rule="evenodd" clip-rule="evenodd" d="M167.111 449L192 437.43V449H167.111Z" fill="white" fill-opacity="0.2"/>
<path d="M492.5 260C515.972 260 535 247.268 535 231.563C535 215.858 515.972 203.126 492.5 203.126C469.028 203.126 450 215.858 450 231.563C450 247.268 469.028 260 492.5 260Z" fill="#F2F2F2"/>
<path fill-rule="evenodd" clip-rule="evenodd" d="M542 251.153C542 216.252 519.838 187.959 492.5 187.959C465.162 187.959 443 216.252 443 251.153" fill="#232324"/>
<path d="M495 -5H490V197.219H495V-5Z" fill="#232324"/>
<path d="M335 167C364.271 167 388 143.271 388 114C388 84.7289 364.271 61 335 61C305.729 61 282 84.7289 282 114C282 143.271 305.729 167 335 167Z" fill="black"/>
<path d="M335 75C336.657 75 338 73.6569 338 72C338 70.3431 336.657 69 335 69C333.343 69 332 70.3431 332 72C332 73.6569 333.343 75 335 75Z" fill="black" fill-opacity="0.1"/>
<path d="M293 117C294.657 117 296 115.657 296 114C296 112.343 294.657 111 293 111C291.343 111 290 112.343 290 114C290 115.657 291.343 117 293 117Z" fill="black" fill-opacity="0.1"/>
<path d="M377 117C378.657 117 380 115.657 380 114C380 112.343 378.657 111 377 111C375.343 111 374 112.343 374 114C374 115.657 375.343 117 377 117Z" fill="black" fill-opacity="0.1"/>
<path d="M335 159C336.657 159 338 157.657 338 156C338 154.343 336.657 153 335 153C333.343 153 332 154.343 332 156C332 157.657 333.343 159 335 159Z" fill="black" fill-opacity="0.1"/>
<path fill-rule="evenodd" clip-rule="evenodd" d="M335 78L337 113H333L335 78Z" fill="#AFB9C5"/>
<path fill-rule="evenodd" clip-rule="evenodd" d="M352.699 131.698L334.314 116.142L337.142 113.314L352.699 131.698Z" fill="#AFB9C5"/>
<path d="M335 118C337.209 118 339 116.209 339 114C339 111.791 337.209 110 335 110C332.791 110 331 111.791 331 114C331 116.209 332.791 118 335 118Z" fill="#C5CFD6"/>
</svg>
