<svg width="296" height="231" viewBox="0 0 296 231" fill="none" xmlns="http://www.w3.org/2000/svg">
<g clip-path="url(#clip0)">
<path fill-rule="evenodd" clip-rule="evenodd" d="M269.201 145.015C265.46 131.875 256.674 121.591 247.555 112.168C229.801 93.8244 220.252 82.4825 213.925 55.6486C210.204 39.867 206.416 23.1433 194.614 11.6936C186.02 3.35561 171.229 -3.64976 159.737 2.32089C142.056 13.4306 137.308 36.2296 139.091 56.6448C141.301 81.9479 152.528 97.5499 174.097 106.87C186.25 112.119 194.329 119.044 200.926 131.113C206.203 140.763 209.28 152.847 215.911 161.595C225.825 174.672 238.232 180.486 253.524 178.313C239.201 150.57 222.465 122.566 202.28 99.2076C200.391 96.8592 189.247 87.8708 191.494 83.8686C193.97 79.4619 205.411 96.0154 205.33 95.9154C211.196 103.004 216.624 110.537 221.954 118.142C221.941 118.149 221.925 118.153 221.91 118.161C227.398 125.964 232.842 133.883 238.183 141.901C240.342 145.293 242.444 148.728 244.457 152.249C247.41 157.415 252.097 172.079 256.929 175.256C257.963 175.935 258.919 176.315 259.813 176.472C263.11 182.155 266.318 187.884 269.37 193.681C277.338 208.82 284.177 224.806 287.316 241.898C288.232 246.887 287.584 265.549 290.819 269.15C296.733 275.737 295 263.052 294.647 259.223C291.709 227.516 280.897 200.503 265.197 173.847C270.02 167.216 270.717 150.339 269.201 145.015Z" fill="#5CB2D7"/>
<path fill-rule="evenodd" clip-rule="evenodd" d="M66.6383 160.335C72.8733 152.601 87.8618 151.289 97.0286 151.806C108.372 152.447 120.022 155.354 130.814 158.869C148.591 164.658 165.865 175.223 181.521 185.45C183.408 186.682 206.653 201.398 204.596 203.981C202.557 206.539 179.738 189.059 174.652 186.046C163.8 179.615 153.847 172.009 141.885 167.762C129.498 163.364 116.399 161.623 103.374 161.743C101.703 161.758 96.25 160.532 96.1323 163.135C96.0171 165.681 105.039 164.353 106.63 164.368C113.201 164.432 119.813 165.083 126.291 166.281C138.427 168.527 149.837 173.052 160.232 179.991C157.332 187.091 150.379 190.364 143.085 188.588C136.781 187.051 130.636 183.264 124.463 182.169C120.212 181.415 115.955 181.863 111.833 183.124C100.959 186.451 94.6872 193.267 82.7314 188.526C73.3587 184.809 57.6839 171.457 66.6383 160.335Z" fill="#5CB2D7"/>
<path fill-rule="evenodd" clip-rule="evenodd" d="M73.6902 87.1456H76.6399C76.4332 83.2048 76.1641 79.2704 75.5316 75.3737C73.1604 60.7673 65.7464 39.3144 49.4858 36.9437C48.8859 36.8553 46.6793 36.8405 44.0062 37.0037C42.7394 36.2665 41.3203 35.8207 39.8251 35.7182C25.9808 34.6552 10.52 46.2871 3.84199 58.3919C-1.54146 68.1514 -0.634537 80.9671 2.69061 91.3357C4.91726 98.2774 9.77693 108.175 17.8811 108.271C28.0204 108.392 28.5093 95.3407 28.7054 87.7111C28.966 77.5677 30.1967 68.7315 37.8713 61.8175C39.66 60.2069 41.6151 58.7898 43.4218 57.2014C46.2509 54.7153 49.3774 52.1699 49.7419 48.0569C50.245 42.3826 47.1695 41.3615 42.4736 42.4157C41.6731 42.5951 33.6096 46.3633 34.8036 43.3849C35.168 42.475 36.4993 41.754 38.1797 41.2137C42.5278 40.7214 47.7132 40.1501 49.2045 40.4914C65.293 44.1673 71.5569 67.3765 73.2204 82.1224C73.4087 83.7922 73.5593 85.4676 73.6902 87.1456H73.6902Z" fill="#5CB2D7"/>
</g>
<defs>
<clipPath id="clip0">
<rect width="296" height="272" fill="white"/>
</clipPath>
</defs>
</svg>
