<svg width="544" height="800" viewBox="0 0 544 900" fill="none" xmlns="http://www.w3.org/2000/svg">
<path fill-rule="evenodd" clip-rule="evenodd" d="M49.258 378.173C52.1225 377.823 55.1799 377.947 57.8439 379.077C63.5085 381.482 65.1187 388.174 65.041 393.614C64.9573 399.468 63.7141 405.863 68.1651 410.58C70.2112 412.748 72.7563 414.408 74.7654 416.617C76.9122 418.977 78.5966 421.677 79.8438 424.577C82.1339 429.903 83.2578 436.167 81.1637 441.754C79.3199 446.674 74.6811 451.114 75.6834 456.708C76.729 462.543 82.6122 467.004 86.2904 471.351C90.4532 476.269 94.2859 482.556 94.9155 489.006C95.5193 495.188 92.8284 501.44 88.6988 506.113C80.4477 515.451 68.0452 520.028 55.5396 520C50.23 519.988 44.2186 519.748 39.6366 516.895C38.2204 516.013 37.4733 515.023 36.6315 513.648C35.8767 512.414 34.8796 511.612 33.7255 510.739C31.1899 508.822 29.3587 506.239 28.1901 503.347C23.6522 492.114 27.2792 478.218 33.6312 468.243C35.1364 465.88 36.3686 463.605 35.6374 460.789C34.8744 457.848 32.999 455.196 31.3403 452.669C29.7011 450.17 27.8299 447.787 26.5488 445.087C25.207 442.257 24.8292 439.294 25.0662 436.198C25.5118 430.381 28.0227 425.013 31.5777 420.336C35.0017 415.83 39.0221 411.518 39.0311 405.615C39.041 399.357 34.8577 393.791 36.6399 387.429C37.3778 384.795 38.86 382.092 41.2486 380.513C43.5393 378.998 46.5639 378.502 49.258 378.173Z" fill="#DDE3E9"/>
<path fill-rule="evenodd" clip-rule="evenodd" d="M47.3862 388.176C47.4399 387.336 48.4367 386.832 49.2215 387.051C50.2545 387.34 50.2346 388.305 50.2073 389.165C50.1237 391.808 50.5063 394.377 51.1417 396.942C52.4622 402.274 54.9027 407.186 56.8362 412.308C58.768 417.425 59.6748 422.709 58.5416 428.124C57.4732 433.23 55.7948 438.203 54.7015 443.315C53.7378 447.821 52.7123 452.573 54.1799 457.067C55.5921 461.393 58.7142 464.916 60.9625 468.825C65.6165 476.918 67.6813 485.896 67.9574 495.135C68.0854 499.425 67.9702 503.755 66.9749 507.963C66.402 510.386 65.6322 513.66 63.5559 515.333C62.5985 516.105 60.961 516.371 60.1552 515.229C59.3987 514.158 60.0624 512.499 60.3025 511.357C61.3427 506.413 61.5519 501.361 61.3029 496.342C61.0619 491.48 60.4874 486.626 58.9572 481.982C57.5369 477.673 55.3792 473.802 52.8398 470.032C50.2521 466.191 47.562 462.341 46.4928 457.789C45.4065 453.166 46.289 448.462 47.4691 443.927C48.7171 439.131 50.3518 434.472 52.0417 429.805C53.6886 425.258 54.2724 420.955 53.3632 416.196C51.5672 406.794 46.7598 397.968 47.3862 388.176Z" fill="#C5CFD6"/>
<path fill-rule="evenodd" clip-rule="evenodd" d="M124.892 389.582C128.437 390.659 131.958 392.395 134.485 395.118C139.858 400.909 138.209 409.661 135.243 416.053C132.05 422.933 127.212 429.849 129.94 437.743C131.193 441.372 133.301 444.659 134.49 448.316C135.761 452.224 136.309 456.294 136.239 460.372C136.11 467.862 134.118 475.855 128.708 481.373C123.945 486.232 116.158 489.07 114.377 496.206C112.518 503.651 117.061 511.988 119.078 519.041C121.36 527.024 122.533 536.453 119.862 544.409C117.303 552.034 110.842 558.028 103.528 561.406C88.9152 568.156 71.9487 567.117 57.2958 560.578C51.0748 557.801 44.1506 554.391 40.2845 548.633C39.0897 546.853 38.7364 545.294 38.476 543.23C38.2426 541.378 37.4972 539.911 36.6048 538.278C34.644 534.692 33.8618 530.684 34.0198 526.656C34.6345 511.011 46.2336 496.464 58.9562 487.972C61.9708 485.96 64.6181 483.912 65.2494 480.2C65.9086 476.325 65.1108 472.213 64.5012 468.361C63.899 464.554 62.9638 460.763 62.8888 456.902C62.8105 452.858 63.9334 449.157 65.8482 445.619C69.4453 438.972 75.2275 433.93 81.8696 430.247C88.2673 426.7 95.2616 423.692 98.3928 416.715C101.712 409.32 99.7474 400.561 105.2 393.964C107.458 391.233 110.625 388.807 114.262 388.182C117.749 387.583 121.558 388.57 124.892 389.582Z" fill="#DDE3E9"/>
<path fill-rule="evenodd" clip-rule="evenodd" d="M117.651 401.811C118.154 400.844 119.584 400.769 120.387 401.44C121.443 402.324 120.914 403.456 120.432 404.46C118.95 407.547 118.052 410.789 117.452 414.159C116.204 421.166 116.485 428.262 116.063 435.341C115.642 442.414 113.935 449.147 109.774 454.965C105.85 460.452 101.283 465.462 97.3274 470.943C93.8408 475.773 90.1533 480.863 89.5156 486.954C88.9012 492.817 90.7069 498.626 91.2882 504.434C92.4919 516.457 90.2042 528.171 85.6884 539.257C83.5911 544.405 81.1887 549.472 77.8211 553.933C75.8824 556.503 73.2673 559.977 69.9634 560.869C68.4399 561.281 66.3855 560.739 66.0415 558.964C65.7181 557.298 67.3628 555.682 68.2417 554.455C72.047 549.146 74.9376 543.273 77.2753 537.198C79.5399 531.314 81.4103 525.265 82.0529 518.963C82.6491 513.116 82.1532 507.401 81.1581 501.606C80.1443 495.701 79.0149 489.731 80.1486 483.781C81.2996 477.736 84.7953 472.628 88.5501 467.876C92.5215 462.85 96.8729 458.19 101.293 453.549C105.6 449.027 108.536 444.238 109.966 438.126C112.79 426.049 111.791 413.078 117.651 401.811Z" fill="#C5CFD6"/>
<path fill-rule="evenodd" clip-rule="evenodd" d="M15.306 434C21.2003 434 26.3823 437.124 29.9531 441.558C34.133 446.748 34.9772 453.086 36.6745 459.272C37.5191 462.35 38.9717 465.406 41.5174 467.498C43.8327 469.4 46.7721 469.78 49.5435 470.71C55.0822 472.567 59.5547 477.041 61.321 482.499C63.4758 489.158 61.1934 495.873 61.5864 502.622C61.9472 508.819 68.0576 512.685 72.9738 515.656C77.8215 518.586 82.1886 521.328 83.6487 527.035C85.1969 533.088 85.7164 539.844 83.5719 545.823C80.0015 555.779 69.5525 560.163 59.4561 560.842C50.2932 561.459 38.7719 560.491 31.8907 553.84C27.773 549.86 26.2819 544.293 26.4669 538.755C26.5818 535.311 27.264 531.899 28.146 528.571C28.7711 526.213 29.6157 523.864 29.8563 521.427C30.4959 514.942 24.5026 513.697 19.401 511.916C12.9183 509.654 8.37987 505.38 5.22399 499.425C2.285 493.881 1.05187 487.658 2.8137 481.554C3.71353 478.437 5.3456 475.61 7.55902 473.205C8.53336 472.146 9.90665 471.263 10.7861 470.151C11.6069 469.112 11.4282 467.766 11.1453 466.55C9.83732 460.931 5.76196 456.278 4.30451 450.668C2.9887 445.605 3.76655 439.304 8.39544 436.038C10.3953 434.627 12.8616 434.016 15.306 434Z" fill="#C5CFD6"/>
<path fill-rule="evenodd" clip-rule="evenodd" d="M23.3377 448.641C29.585 455.296 31.2831 464.325 31.7815 473.076C32.0606 477.983 31.7701 483.159 33.2118 487.919C34.4454 491.993 37.3373 495.107 40.3183 498.051C46.3188 503.975 53.0108 509.999 54.7659 518.574C55.7957 523.606 55.1006 528.804 56.5236 533.78C57.8175 538.304 60.0956 542.748 62.8665 546.568C65.0975 549.645 68.0042 552 70.443 554.867C71.1871 555.743 72.2529 557.031 71.9458 558.267C71.5865 559.714 69.7431 560.172 68.4352 559.945C65.3859 559.415 62.8191 556.503 60.8253 554.386C57.9098 551.291 55.4323 547.962 53.4187 544.227C51.1832 540.08 49.3833 535.679 48.6142 531.026C47.8161 526.199 48.2133 521.168 46.3909 516.535C43.3242 508.74 35.886 504.14 30.5082 498.064C23.8077 490.494 24.807 481.072 25.4933 471.759C25.8703 466.641 26.2451 460.862 23.6591 456.189C22.672 454.406 20.4711 452.743 20.0467 450.715C19.6579 448.858 21.7797 446.981 23.3377 448.641Z" fill="#AFB9C5"/>
<path fill-rule="evenodd" clip-rule="evenodd" d="M30 558C30.0004 596.058 36.2112 616 69.0001 616C101.789 616 108 596.058 108 558H30Z" fill="#22D1EE"/>
<path fill-rule="evenodd" clip-rule="evenodd" d="M188.262 328.49C183.654 323.082 180.536 316.453 181.057 309.026C182.558 287.625 212.349 292.333 218.143 303.134C223.938 313.935 223.25 341.333 215.76 343.264C212.774 344.034 206.411 342.148 199.935 338.245L204 367H180L188.262 328.49Z" fill="#B28B67"/>
<path fill-rule="evenodd" clip-rule="evenodd" d="M228.776 288.161C228.279 286.414 226.942 284.918 225.14 284.474C224.704 284.367 224.252 284.323 223.803 284.341C223.642 284.348 223.596 284.394 223.521 284.282C223.465 284.198 223.464 283.994 223.441 283.895C223.369 283.59 223.28 283.288 223.169 282.994C222.792 281.992 222.159 281.105 221.395 280.358C219.967 278.96 218.037 277.995 216.032 277.82C214.934 277.725 213.845 277.903 212.807 278.26C212.27 278.445 211.749 278.675 211.242 278.929C211.089 279.006 210.594 279.381 210.441 279.357C210.271 279.33 209.931 278.909 209.793 278.804C208.092 277.498 205.991 276.985 203.872 277C201.48 277.018 199.177 277.138 197.182 278.596C196.759 278.905 196.357 279.243 195.974 279.599C195.772 279.786 195.577 279.98 195.391 280.183C195.278 280.305 195.169 280.43 195.064 280.558C194.885 280.776 194.914 280.847 194.663 280.696C193.703 280.112 192.591 279.839 191.47 279.977C190.805 280.059 190.157 280.259 189.542 280.522C189.333 280.611 188.849 280.968 188.626 280.972C188.404 280.975 187.927 280.644 187.699 280.56C186.467 280.106 185.14 279.993 183.846 280.204C182.511 280.42 181.2 280.953 180.069 281.689C179.525 282.043 179.05 282.435 178.669 282.962C178.504 283.189 178.356 283.429 178.169 283.64C178.06 283.763 177.844 283.89 177.785 284.046C177.82 283.953 176.325 283.376 176.184 283.339C175.432 283.143 174.667 283.183 173.931 283.425C172.547 283.881 171.357 284.902 170.379 285.949C169.877 286.487 169.437 287.081 169.064 287.715C168.885 288.018 168.721 288.33 168.572 288.649C168.499 288.803 168.451 288.997 168.356 289.136C168.232 289.315 168.15 289.318 167.927 289.396C166.794 289.793 165.762 290.465 164.975 291.372C164.18 292.291 163.664 293.421 163.448 294.612C163.435 294.682 163.427 294.973 163.386 295.011C163.33 295.063 163.102 295.04 163.016 295.05C162.718 295.085 162.421 295.137 162.129 295.206C161.59 295.334 161.066 295.521 160.57 295.767C158.636 296.724 157.253 298.518 156.576 300.536C155.865 302.655 155.878 305.082 156.727 307.161C156.864 307.497 157.027 307.823 157.219 308.131C157.336 308.32 157.374 308.321 157.298 308.519C157.213 308.74 157.057 308.955 156.956 309.171C156.626 309.875 156.396 310.622 156.25 311.385C156.011 312.637 155.892 313.953 156.128 315.214C156.238 315.8 156.428 316.372 156.719 316.894C156.868 317.16 157.042 317.412 157.238 317.645C157.339 317.766 157.447 317.882 157.561 317.993C157.625 318.056 157.71 318.112 157.765 318.182C157.899 318.355 157.927 318.213 157.858 318.466C157.761 318.82 157.542 319.17 157.408 319.514C157.269 319.869 157.144 320.229 157.03 320.593C156.798 321.329 156.602 322.078 156.479 322.84C156.244 324.303 156.285 325.862 156.977 327.205C157.273 327.78 157.698 328.283 158.213 328.675C158.465 328.867 158.738 329.033 159.024 329.168C159.171 329.238 159.359 329.268 159.426 329.41C159.499 329.563 159.391 329.867 159.367 330.038C159.154 331.527 159.047 333.089 159.49 334.548C159.897 335.891 160.794 337.077 161.959 337.862C164.219 339.386 167.265 339.3 169.639 338.08C170.258 337.762 170.837 337.368 171.353 336.902C172.669 338.673 175.375 338.617 177.297 338.112C179.692 337.484 181.614 335.818 182.721 333.63C184.235 335.473 187.412 334.875 188.462 332.876C188.719 332.387 188.871 331.847 188.946 331.302C188.986 331.015 188.961 330.725 188.99 330.441C189.028 330.078 189.27 329.725 189.41 329.374C189.681 328.691 189.849 327.986 189.857 327.249C189.86 326.864 189.812 326.49 189.775 326.108C189.742 325.765 189.837 325.445 189.892 325.106C189.277 325.207 188.529 325.041 187.95 324.863C187.383 324.688 186.851 324.228 186.45 323.808C185.519 322.831 184.951 321.552 184.562 320.278C183.708 317.483 184.058 314.129 186.87 312.595C188.18 311.881 192.103 311.883 193.663 312.236C195.304 312.607 197.163 316.227 197.255 316.567C197.311 316.777 197.283 317.038 197.476 317.178C197.901 317.487 198.602 316.951 198.916 316.687C199.457 316.231 199.843 315.625 200.177 315.01C200.905 313.67 201.492 312.233 201.907 310.767C202.227 309.636 202.431 308.47 202.849 307.368C203.265 306.272 203.92 305.291 204.94 304.67C206.048 303.995 207.319 303.639 208.536 303.214C209.743 302.793 210.929 302.279 211.864 301.386C212.07 301.19 212.269 300.981 212.435 300.75C212.565 300.567 212.695 300.218 212.894 300.102C213.203 299.922 213.655 300.39 213.923 300.56C215.243 301.399 216.345 302.569 217.233 303.846C218.117 305.117 218.842 306.34 219.431 307.759C219.868 308.811 220.141 310.159 220.909 311.021C221.252 311.407 223.803 311.64 224.629 311.303C225.455 310.967 226.381 310.094 226.658 309.547C226.942 308.987 227.01 308.372 226.889 307.759C226.817 307.398 226.672 307.061 226.592 306.707C226.525 306.409 226.464 306.128 226.319 305.856C226.045 305.339 225.576 304.968 225.01 304.812C225.599 304.27 226.086 303.621 226.424 302.895C226.774 302.141 227.072 301.224 227.156 300.397C227.224 299.725 227.119 299.028 226.751 298.451C226.365 297.845 225.681 297.45 225.089 297.072C225.993 296.365 226.767 295.505 227.402 294.553C228.639 292.701 229.404 290.368 228.776 288.161Z" fill="#191847"/>
<path fill-rule="evenodd" clip-rule="evenodd" d="M113 492H228C236.837 492 244 499.164 244 508V600C244 608.837 236.837 616 228 616H113C104.163 616 97 608.837 97 600V508C97 499.164 104.163 492 113 492ZM129 520C126.791 520 125 521.791 125 524V584C125 586.209 126.791 588 129 588H212C214.209 588 216 586.209 216 584V524C216 521.791 214.209 520 212 520H129Z" fill="black"/>
<path fill-rule="evenodd" clip-rule="evenodd" d="M315.509 612.66C302.697 584.302 293.43 559.609 289.711 546.58C283.343 524.273 278.498 504.644 277.273 497.313C274.353 479.833 299.735 478.815 303.09 487.502C308.168 500.651 317.033 543.853 327.685 609.108L315.509 612.66ZM166.888 523.664C178.644 519.017 219.812 504.475 239.667 500.362C245.373 499.179 250.903 498.081 256.102 497.089C271.556 494.138 279.563 522.018 264.679 524.16C227.612 529.495 175.063 535.004 170.566 535.622C164.263 536.488 159.5 526.584 166.888 523.664Z" fill="#B28B67"/>
<path fill-rule="evenodd" clip-rule="evenodd" d="M265.587 489.417L202 457.047V450H209.562C271.08 465.676 302.515 475.722 303.869 480.138C303.883 480.186 303.897 480.233 303.909 480.281C303.94 480.322 303.97 480.362 304 480.404C316.192 497.17 323.493 579.027 325.889 585.156L302.528 588.642C293.591 555.504 265 532.418 265.759 492.729C265.554 491.565 265.503 490.461 265.587 489.417Z" fill="#2FC5DE"/>
<path fill-rule="evenodd" clip-rule="evenodd" d="M207.283 508.641C201.465 507.476 196.107 506.437 191.523 505.633C161.909 500.438 153.274 484.587 158.38 450H212.942C221.855 452.561 268.174 471.985 292.207 482.317C308.113 489.155 303.099 513.805 294.091 520.22C294.042 520.613 293.88 520.881 293.591 521C245.137 541.083 206.805 530.546 194 533.913L188.077 515.229L207.283 508.641Z" fill="#22D1EE"/>
<path fill-rule="evenodd" clip-rule="evenodd" d="M170.908 520.694C167.733 520.998 165.479 521.475 164.147 522.125C162.526 522.915 160.293 524.339 157.446 526.395C158.364 528.275 166.605 545.173 182.171 577.089C187.169 576.282 189.149 574.375 188.112 571.367C187.075 568.36 186.239 565.849 185.603 563.835L184.615 535.15C184.596 534.598 184.133 534.166 183.581 534.185C183.572 534.185 183.562 534.186 183.553 534.186L179.14 534.464C176.633 532.434 174.979 530.598 174.177 528.955C173.526 527.621 173.167 525.515 173.098 522.637L173.098 522.637C173.071 521.533 172.154 520.659 171.05 520.686C171.003 520.687 170.955 520.69 170.908 520.694Z" fill="#E4E4E4"/>
<path fill-rule="evenodd" clip-rule="evenodd" d="M309.678 607.402C308.559 610.389 308 612.623 308 614.106C308 615.909 308.3 618.541 308.901 622C310.993 622 329.794 622 365.303 622C366.769 617.155 365.923 614.539 362.765 614.153C359.607 613.766 356.984 613.417 354.895 613.106L328.68 601.419C328.176 601.194 327.584 601.421 327.359 601.925C327.356 601.934 327.352 601.943 327.348 601.951L325.663 606.039C322.74 607.403 320.364 608.085 318.537 608.085C317.052 608.085 315.001 607.485 312.384 606.286L312.384 606.286C311.38 605.825 310.193 606.266 309.733 607.27C309.713 607.314 309.695 607.358 309.678 607.402Z" fill="#E4E4E4"/>
<path fill-rule="evenodd" clip-rule="evenodd" d="M260.044 434.123L288.372 461.758C296.615 465.274 303.368 469.156 308.633 473.404C309.817 474.832 311.106 477.569 305.535 476.344C299.965 475.12 294.051 474.082 293.004 475.894C291.957 477.705 295.042 480.481 293.107 482.852C291.817 484.433 287.479 479.405 280.093 467.77L250.636 450.403L260.044 434.123ZM134.308 438.02L155.205 438.102C142.302 479.756 135.336 501.857 134.308 504.406C131.994 510.14 136.891 518.874 138.985 523.567C132.165 526.619 132.891 515.317 124.288 519.32C116.435 522.973 110.462 529.593 101.389 523.995C100.274 523.306 99.0514 520.715 102.005 518.69C109.362 513.645 119.965 504.815 121.398 501.909C123.352 497.945 127.655 476.649 134.308 438.02Z" fill="#B28B67"/>
<path fill-rule="evenodd" clip-rule="evenodd" d="M193.695 350.332L202.342 348.849C217.23 386.039 243.222 419.831 280.319 450.225L252.287 484.282C215.194 441.005 192.33 396.355 193.695 350.332Z" fill="#5CB2D7"/>
<path fill-rule="evenodd" clip-rule="evenodd" d="M156 459H233C215.161 415.625 206.241 378.779 206.241 348.461L183.014 345C164.76 374.359 159.605 410.505 156 459Z" fill="#DDE3E9"/>
<path fill-rule="evenodd" clip-rule="evenodd" d="M182.522 345.017C182.525 345.011 182.529 345.006 182.532 345H184.048C185.862 345.063 188.625 345.175 192.338 345.338L197.95 361.377C198.544 380.933 202.011 420.342 208.351 479.606H157.876C158.008 483.699 158.227 487.831 158.531 492H121C126.614 428.664 147.115 379.664 182.504 345L182.522 345.017V345.017Z" fill="#5CB2D7"/>
<path fill-rule="evenodd" clip-rule="evenodd" d="M161.21 427.233C162.647 452.748 166.243 470.337 172 480H157.889C157.271 461.643 158.378 444.054 161.21 427.233V427.233Z" fill="black" fill-opacity="0.1"/>
<path fill-rule="evenodd" clip-rule="evenodd" d="M169.111 449L194 437.43V449H169.111Z" fill="white" fill-opacity="0.2"/>
<path d="M494.5 260C517.972 260 537 247.268 537 231.563C537 215.858 517.972 203.126 494.5 203.126C471.028 203.126 452 215.858 452 231.563C452 247.268 471.028 260 494.5 260Z" fill="#F2F2F2"/>
<path fill-rule="evenodd" clip-rule="evenodd" d="M544 251.153C544 216.252 521.838 187.959 494.5 187.959C467.162 187.959 445 216.252 445 251.153" fill="#232324"/>
<path d="M497 -5H492V197.219H497V-5Z" fill="#232324"/>
<path d="M337 167C366.271 167 390 143.271 390 114C390 84.7289 366.271 61 337 61C307.729 61 284 84.7289 284 114C284 143.271 307.729 167 337 167Z" fill="black"/>
<path d="M337 75C338.657 75 340 73.6569 340 72C340 70.3431 338.657 69 337 69C335.343 69 334 70.3431 334 72C334 73.6569 335.343 75 337 75Z" fill="black" fill-opacity="0.1"/>
<path d="M295 117C296.657 117 298 115.657 298 114C298 112.343 296.657 111 295 111C293.343 111 292 112.343 292 114C292 115.657 293.343 117 295 117Z" fill="black" fill-opacity="0.1"/>
<path d="M379 117C380.657 117 382 115.657 382 114C382 112.343 380.657 111 379 111C377.343 111 376 112.343 376 114C376 115.657 377.343 117 379 117Z" fill="black" fill-opacity="0.1"/>
<path d="M337 159C338.657 159 340 157.657 340 156C340 154.343 338.657 153 337 153C335.343 153 334 154.343 334 156C334 157.657 335.343 159 337 159Z" fill="black" fill-opacity="0.1"/>
<path fill-rule="evenodd" clip-rule="evenodd" d="M337 78L339 113H335L337 78Z" fill="#AFB9C5"/>
<path fill-rule="evenodd" clip-rule="evenodd" d="M354.699 131.698L336.314 116.142L339.142 113.314L354.699 131.698Z" fill="#AFB9C5"/>
<path d="M337 118C339.209 118 341 116.209 341 114C341 111.791 339.209 110 337 110C334.791 110 333 111.791 333 114C333 116.209 334.791 118 337 118Z" fill="#C5CFD6"/>
<g clip-path="url(#clip0)">
<path fill-rule="evenodd" clip-rule="evenodd" d="M269.201 814.015C265.46 800.875 256.674 790.591 247.555 781.168C229.801 762.824 220.252 751.482 213.925 724.649C210.204 708.867 206.416 692.143 194.614 680.694C186.02 672.356 171.229 665.35 159.737 671.321C142.056 682.431 137.308 705.23 139.091 725.645C141.301 750.948 152.528 766.55 174.097 775.87C186.25 781.119 194.329 788.044 200.926 800.113C206.203 809.763 209.28 821.847 215.911 830.595C225.825 843.672 238.232 849.486 253.524 847.313C239.201 819.57 222.465 791.566 202.28 768.208C200.391 765.859 189.247 756.871 191.494 752.869C193.97 748.462 205.411 765.015 205.33 764.915C211.196 772.004 216.624 779.537 221.954 787.142C221.941 787.149 221.925 787.153 221.91 787.161C227.398 794.964 232.842 802.883 238.183 810.901C240.342 814.293 242.444 817.728 244.457 821.249C247.41 826.415 252.097 841.079 256.929 844.256C257.963 844.935 258.919 845.315 259.813 845.472C263.11 851.155 266.318 856.884 269.37 862.681C277.338 877.82 284.177 893.806 287.316 910.898C288.232 915.887 287.584 934.549 290.819 938.15C296.733 944.737 295 932.052 294.647 928.223C291.709 896.516 280.897 869.503 265.197 842.847C270.02 836.216 270.717 819.339 269.201 814.015Z" fill="#5CB2D7"/>
<path fill-rule="evenodd" clip-rule="evenodd" d="M66.6383 829.335C72.8733 821.601 87.8618 820.289 97.0286 820.806C108.372 821.447 120.022 824.354 130.814 827.869C148.591 833.658 165.865 844.223 181.521 854.45C183.408 855.682 206.653 870.398 204.596 872.981C202.557 875.539 179.738 858.059 174.652 855.046C163.8 848.615 153.847 841.009 141.885 836.762C129.498 832.364 116.399 830.623 103.374 830.743C101.703 830.758 96.25 829.532 96.1323 832.135C96.0171 834.681 105.039 833.353 106.63 833.368C113.201 833.432 119.813 834.083 126.291 835.281C138.427 837.527 149.837 842.052 160.232 848.991C157.332 856.091 150.379 859.364 143.085 857.588C136.781 856.051 130.636 852.264 124.463 851.169C120.212 850.415 115.955 850.863 111.833 852.124C100.959 855.451 94.6872 862.267 82.7314 857.526C73.3587 853.809 57.6839 840.457 66.6383 829.335Z" fill="#5CB2D7"/>
<path fill-rule="evenodd" clip-rule="evenodd" d="M73.6902 756.146H76.6399C76.4332 752.205 76.1641 748.27 75.5316 744.374C73.1604 729.767 65.7464 708.314 49.4858 705.944C48.8859 705.855 46.6793 705.84 44.0062 706.004C42.7394 705.267 41.3203 704.821 39.8251 704.718C25.9808 703.655 10.52 715.287 3.84199 727.392C-1.54146 737.151 -0.634537 749.967 2.69061 760.336C4.91726 767.277 9.77693 777.175 17.8811 777.271C28.0204 777.392 28.5093 764.341 28.7054 756.711C28.966 746.568 30.1967 737.731 37.8713 730.817C39.66 729.207 41.6151 727.79 43.4218 726.201C46.2509 723.715 49.3774 721.17 49.7419 717.057C50.245 711.383 47.1695 710.361 42.4736 711.416C41.6731 711.595 33.6096 715.363 34.8036 712.385C35.168 711.475 36.4993 710.754 38.1797 710.214C42.5278 709.721 47.7132 709.15 49.2045 709.491C65.293 713.167 71.5569 736.376 73.2204 751.122C73.4087 752.792 73.5593 754.468 73.6902 756.146H73.6902Z" fill="#5CB2D7"/>
</g>
<defs>
<clipPath id="clip0">
<rect width="296" height="272" fill="white" transform="translate(0 669)"/>
</clipPath>
</defs>
</svg>
