<svg width="106" height="106" viewBox="0 0 106 106" fill="none" xmlns="http://www.w3.org/2000/svg">
<path d="M53 106C82.2711 106 106 82.2711 106 53C106 23.7289 82.2711 0 53 0C23.7289 0 0 23.7289 0 53C0 82.2711 23.7289 106 53 106Z" fill="black"/>
<path d="M53 14C54.6569 14 56 12.6569 56 11C56 9.34315 54.6569 8 53 8C51.3431 8 50 9.34315 50 11C50 12.6569 51.3431 14 53 14Z" fill="black" fill-opacity="0.1"/>
<path d="M11 56C12.6569 56 14 54.6569 14 53C14 51.3431 12.6569 50 11 50C9.34315 50 8 51.3431 8 53C8 54.6569 9.34315 56 11 56Z" fill="black" fill-opacity="0.1"/>
<path d="M95 56C96.6569 56 98 54.6569 98 53C98 51.3431 96.6569 50 95 50C93.3431 50 92 51.3431 92 53C92 54.6569 93.3431 56 95 56Z" fill="black" fill-opacity="0.1"/>
<path d="M53 98C54.6569 98 56 96.6569 56 95C56 93.3431 54.6569 92 53 92C51.3431 92 50 93.3431 50 95C50 96.6569 51.3431 98 53 98Z" fill="black" fill-opacity="0.1"/>
<path fill-rule="evenodd" clip-rule="evenodd" d="M53 17L55 52H51L53 17Z" fill="#AFB9C5"/>
<path fill-rule="evenodd" clip-rule="evenodd" d="M70.6986 70.6985L52.3138 55.1421L55.1422 52.3137L70.6986 70.6985Z" fill="#AFB9C5"/>
<path d="M53 57C55.2091 57 57 55.2091 57 53C57 50.7909 55.2091 49 53 49C50.7909 49 49 50.7909 49 53C49 55.2091 50.7909 57 53 57Z" fill="#C5CFD6"/>
</svg>
