<svg width="17" height="17" viewBox="0 0 17 17" fill="none" xmlns="http://www.w3.org/2000/svg">
<path d="M3.54167 3.54167H7.79167C8.18125 3.54167 8.5 3.22292 8.5 2.83333C8.5 2.44375 8.18125 2.125 7.79167 2.125H3.54167C2.7625 2.125 2.125 2.7625 2.125 3.54167V13.4583C2.125 14.2375 2.7625 14.875 3.54167 14.875H7.79167C8.18125 14.875 8.5 14.5562 8.5 14.1667C8.5 13.7771 8.18125 13.4583 7.79167 13.4583H3.54167V3.54167Z" fill="#F44646"/>
<path d="M14.6271 8.25205L12.6508 6.2758C12.6016 6.22519 12.5383 6.19043 12.4692 6.17597C12.4001 6.16151 12.3282 6.16801 12.2628 6.19464C12.1974 6.22126 12.1414 6.2668 12.102 6.32542C12.0626 6.38405 12.0416 6.45309 12.0417 6.52372V7.79163H7.08333C6.69375 7.79163 6.375 8.11038 6.375 8.49997C6.375 8.88955 6.69375 9.2083 7.08333 9.2083H12.0417V10.4762C12.0417 10.795 12.4242 10.9508 12.6438 10.7241L14.62 8.74788C14.7617 8.6133 14.7617 8.38663 14.6271 8.25205Z" fill="#F44646"/>
</svg>
